<?xml version="1.0" encoding="UTF-8"?>
<svg version="1.1" xmlns="http://www.w3.org/2000/svg" width="1668" height="118">
<path d="M0 0 C550.44 0 1100.88 0 1668 0 C1668 38.94 1668 77.88 1668 118 C1117.56 118 567.12 118 0 118 C0 79.06 0 40.12 0 0 Z " fill="#FDFDFD" transform="translate(0,0)"/>
<path d="M0 0 C1.02574883 0.00424484 1.02574883 0.00424484 2.07221985 0.00857544 C4.2527529 0.01975566 6.4328727 0.04485559 8.61328125 0.0703125 C10.09309302 0.08034512 11.57291124 0.08947048 13.05273438 0.09765625 C16.67721725 0.11968769 20.30145891 0.15420248 23.92578125 0.1953125 C23.46755657 3.66472796 23.03446442 6.86926299 21.92578125 10.1953125 C21.84286172 12.1873428 21.81839948 14.18204963 21.828125 16.17578125 C21.83134766 17.33916016 21.83457031 18.50253906 21.83789062 19.70117188 C21.84626953 20.91611328 21.85464844 22.13105469 21.86328125 23.3828125 C21.86779297 24.60935547 21.87230469 25.83589844 21.87695312 27.09960938 C21.8887506 30.13155918 21.90521204 33.16341156 21.92578125 36.1953125 C21.26578125 36.1953125 20.60578125 36.1953125 19.92578125 36.1953125 C19.92578125 36.8553125 19.92578125 37.5153125 19.92578125 38.1953125 C20.73015625 38.5046875 21.53453125 38.8140625 22.36328125 39.1328125 C24.92578125 40.1953125 24.92578125 40.1953125 25.92578125 41.1953125 C26.33727646 46.44187647 25.81072182 49.77173696 22.92578125 54.1953125 C20.31766717 57.11886221 17.87985418 58.97201884 13.98828125 59.8828125 C7.92450073 58.52155565 4.33937413 53.74537147 0.48828125 49.1328125 C-2.48019861 45.60436939 -5.53219847 43.39458726 -9.5703125 41.203125 C-10.06660156 40.87054688 -10.56289062 40.53796875 -11.07421875 40.1953125 C-11.07421875 39.5353125 -11.07421875 38.8753125 -11.07421875 38.1953125 C-12.39421875 38.1953125 -13.71421875 38.1953125 -15.07421875 38.1953125 C-15.22034062 33.69565813 -15.30857105 29.19662012 -15.38671875 24.6953125 C-15.42861328 23.426875 -15.47050781 22.1584375 -15.51367188 20.8515625 C-15.610047 13.44995324 -15.38606657 7.73811022 -10.07421875 2.1953125 C-6.34881213 -0.28829191 -4.44358902 -0.0362742 0 0 Z " fill="#F7F7F7" transform="translate(1538.07421875,33.8046875)"/>
<path d="M0 0 C1.20446777 0.01047363 2.40893555 0.02094727 3.64990234 0.03173828 C5.60283203 0.04140625 5.60283203 0.04140625 7.59521484 0.05126953 C8.9754258 0.06798149 10.35563413 0.08491139 11.73583984 0.10205078 C13.12385436 0.11208072 14.51187574 0.12120655 15.89990234 0.12939453 C19.3037201 0.15303215 22.70719491 0.18598211 26.11083984 0.22705078 C25.97126862 0.76502792 25.83169739 1.30300507 25.68789673 1.85728455 C24.29679825 7.58130703 23.77872884 12.97806244 23.69677734 18.85595703 C23.67741119 19.7310643 23.65804504 20.60617157 23.63809204 21.50779724 C23.57891522 24.26828654 23.53216166 27.02881896 23.48583984 29.78955078 C23.44760292 31.67563541 23.40854799 33.56170364 23.36865234 35.44775391 C23.27326567 40.0407177 23.18900994 44.63376303 23.11083984 49.22705078 C24.53396484 49.38173828 24.53396484 49.38173828 25.98583984 49.53955078 C29.11083984 50.22705078 29.11083984 50.22705078 31.11083984 53.22705078 C31.81000351 59.28646924 30.54214034 62.40468252 27.11083984 67.22705078 C24.46813092 69.3829449 22.61100323 70.11590336 19.29833984 70.85205078 C11.49094236 69.32118853 6.22179569 61.16432531 1.23193359 55.46533203 C-1.27458986 52.82032662 -3.8063655 51.12415518 -6.88916016 49.22705078 C-6.88916016 48.56705078 -6.88916016 47.90705078 -6.88916016 47.22705078 C0.03329232 49.25763684 5.19260601 51.69440941 10.71240234 56.48486328 C11.66888672 57.30728516 12.62537109 58.12970703 13.61083984 58.97705078 C14.50802734 59.77626953 15.40521484 60.57548828 16.32958984 61.39892578 C19.55726125 63.52048508 21.32483034 63.60565173 25.11083984 63.22705078 C25.70153998 61.28101804 25.70153998 61.28101804 26.11083984 59.22705078 C25.00717754 57.89814694 25.00717754 57.89814694 22.23583984 58.10205078 C19.07871571 58.08328212 19.07871571 58.08328212 16.11083984 59.22705078 C16.67629821 55.26884219 17.91986333 52.56114548 20.11083984 49.22705078 C10.56022973 42.8007094 3.72904876 40.70423138 -7.88916016 41.22705078 C-5.19597834 34.37477805 -5.19597834 34.37477805 -2.88916016 32.22705078 C3.12544408 31.2647141 8.0110974 33.17829171 13.11083984 36.22705078 C15.34524571 38.10431801 17.16656258 40.0335072 19.11083984 42.22705078 C19.7564359 38.15870311 19.7564359 38.15870311 19.11083984 34.22705078 C14.42892812 29.62517174 8.10882249 26.39195632 1.56005859 26.03173828 C0.31869141 26.05494141 -0.92267578 26.07814453 -2.20166016 26.10205078 C-3.45591797 26.12009766 -4.71017578 26.13814453 -6.00244141 26.15673828 C-6.95505859 26.17994141 -7.90767578 26.20314453 -8.88916016 26.22705078 C-6.79303874 13.20512835 -6.79303874 13.20512835 -3.88916016 8.22705078 C-4.87916016 8.22705078 -5.86916016 8.22705078 -6.88916016 8.22705078 C-4.49273148 0.35307084 -4.49273148 0.35307084 0 0 Z " fill="#282828" transform="translate(264.88916015625,33.77294921875)"/>
<path d="M0 0 C4.54348527 1.69059917 6.21655412 4.59872647 8.53515625 8.62109375 C10.26100148 11.4238664 12.23957481 13.95718964 14.25 16.5625 C17.31450622 20.77981669 19.29357558 23.61778111 19 29 C18.37654132 31.54273343 17.64697137 33.99915264 16.7890625 36.47265625 C15.22988911 41.46664231 14.86482465 45.50273882 15.8671875 50.63671875 C17.39190931 59.65051531 17.70491604 68.69496351 18.125 77.8125 C18.21162108 79.58401473 18.29885648 81.35549952 18.38671875 83.12695312 C18.59821628 87.41765729 18.80144298 91.70867834 19 96 C18.01 96 17.02 96 16 96 C14.27713524 86.37119748 13.13475376 76.73593256 12.14453125 67.0078125 C12.02464844 65.90179688 11.90476562 64.79578125 11.78125 63.65625 C11.67876953 62.66431641 11.57628906 61.67238281 11.47070312 60.65039062 C11.0132248 58.07446496 10.301179 56.25234887 9 54 C8.484375 54.495 7.96875 54.99 7.4375 55.5 C4.09971339 57.55402253 1.85600245 57.41314312 -2 57 C-4.375 56.0625 -4.375 56.0625 -6 54 C-7.43807493 49.23754408 -7.52676864 46.03472411 -5.25 41.5625 C-2.64410371 38.59467367 -1.12031812 37.09741897 2.875 36.75 C5.99222095 36.99937768 8.18740631 37.6764265 11 39 C11 37.35 11 35.7 11 34 C8.26843041 33.83737072 5.54657878 33.71889314 2.8125 33.625 C2.04357422 33.57472656 1.27464844 33.52445313 0.48242188 33.47265625 C-3.87091437 33.32571336 -3.87091437 33.32571336 -7.63134766 35.25683594 C-11.67897033 39.96716762 -12.41098765 43.9379321 -12 50 C-10.14774571 54.77686634 -7.34580456 58.20205969 -4 62 C-4.66 63.32 -5.32 64.64 -6 66 C-7.65 66 -9.3 66 -11 66 C-15.44794456 58.58675907 -18.56322679 51.81518869 -17 43 C-11.30596773 28.55431813 -11.30596773 28.55431813 -6 25 C-2.421114 24.37648737 1.1232673 24.30312125 4.75 24.25 C5.73355469 24.22035156 6.71710937 24.19070312 7.73046875 24.16015625 C10.15372776 24.08957589 12.57603154 24.03682299 15 24 C13.1342867 22.05277495 11.25832281 20.11757196 9.375 18.1875 C8.85292969 17.64029297 8.33085938 17.09308594 7.79296875 16.52929688 C3.41264251 12.06785348 -0.94550158 8.86676711 -7.375 8.3125 C-9.169375 8.1578125 -9.169375 8.1578125 -11 8 C-8.27393696 11.28814599 -8.27393696 11.28814599 -4.25 12.25 C-3.13625 12.12625 -3.13625 12.12625 -2 12 C-2.54723683 15.37462715 -3.0549 17.08235 -5 20 C-7.8125 20.5 -7.8125 20.5 -11 20 C-13.9375 17.875 -13.9375 17.875 -16 15 C-16.10608346 10.01407717 -13.94187855 6.89366278 -11 3 C-10.5875 2.38125 -10.175 1.7625 -9.75 1.125 C-6.71834027 -0.82392411 -3.4334354 -0.47218169 0 0 Z " fill="#2B2B2B" transform="translate(911,9)"/>
<path d="M0 0 C1.5631897 0.00785522 1.5631897 0.00785522 3.15795898 0.01586914 C4.28266602 0.0190918 5.40737305 0.02231445 6.56616211 0.02563477 C7.75016602 0.03401367 8.93416992 0.04239258 10.15405273 0.05102539 C11.34192383 0.05553711 12.52979492 0.06004883 13.75366211 0.06469727 C16.69967499 0.07652864 19.64558954 0.09301252 22.59155273 0.11352539 C21.98692362 5.00390793 20.98606006 9.08643659 19.11499023 13.60961914 C18.51835411 16.46367704 18.84220621 18.83621125 19.27563477 21.69824219 C19.64577592 24.52807714 19.80292548 27.33771269 19.95092773 30.18774414 C20.01538086 31.26733398 20.07983398 32.34692383 20.14624023 33.45922852 C20.2770814 35.69792087 20.39151334 37.93762918 20.48999023 40.17797852 C20.79789257 46.6981319 20.79789257 46.6981319 24.13452148 52.10571289 C24.9453418 52.76829102 25.75616211 53.43086914 26.59155273 54.11352539 C27.86304294 58.65456183 26.97440631 62.37516493 24.84155273 66.48852539 C21.46257546 70.43066555 20.10091238 71.88712144 14.84155273 72.67602539 C9.48764787 72.40882496 6.27071998 69.83426515 2.59155273 66.11352539 C-0.62153817 62.25453205 -3.54285324 58.23512564 -6.40844727 54.11352539 C-7.0362207 53.22020508 -7.66399414 52.32688477 -8.31079102 51.40649414 C-12.40844727 45.43837833 -12.40844727 45.43837833 -12.40844727 43.11352539 C-9.34493694 44.47336592 -7.32017324 45.9896391 -5.01782227 48.41430664 C-4.39004883 49.06206055 -3.76227539 49.70981445 -3.11547852 50.37719727 C-1.82409697 51.72915259 -0.53498229 53.08327732 0.75170898 54.43969727 C5.66760294 59.50076528 10.79994698 64.77498916 18.09155273 65.42602539 C18.91655273 65.32290039 19.74155273 65.21977539 20.59155273 65.11352539 C21.27303503 63.22173336 21.27303503 63.22173336 21.59155273 61.11352539 C20.93155273 60.45352539 20.27155273 59.79352539 19.59155273 59.11352539 C15.99476207 59.43679092 15.99476207 59.43679092 12.59155273 60.11352539 C14.06847581 54.45198693 14.06847581 54.45198693 16.71655273 52.73852539 C17.33530273 52.53227539 17.95405273 52.32602539 18.59155273 52.11352539 C18.32342773 51.10290039 18.05530273 50.09227539 17.77905273 49.05102539 C16.53273574 44.11917101 15.5834913 39.12868393 14.64501953 34.13085938 C14.22999852 30.84050444 14.22999852 30.84050444 12.59155273 28.11352539 C12.09655273 28.77352539 11.60155273 29.43352539 11.09155273 30.11352539 C8.04613368 32.54986064 6.31104843 32.77547384 2.49780273 32.55493164 C0.59155273 32.11352539 0.59155273 32.11352539 -1.90844727 30.11352539 C-3.80699236 26.31643519 -4.42247628 23.21608553 -3.40844727 19.11352539 C-1.84611001 16.18759343 -0.103237 14.05779254 2.59155273 12.11352539 C7.17774028 11.38939051 10.44172376 12.1014871 14.59155273 14.11352539 C14.59155273 12.46352539 14.59155273 10.81352539 14.59155273 9.11352539 C11.82065443 9.0865653 9.05001823 9.06670587 6.27905273 9.05102539 C5.49336914 9.04264648 4.70768555 9.03426758 3.89819336 9.02563477 C2.76220703 9.02080078 2.76220703 9.02080078 1.60327148 9.01586914 C0.9067749 9.01063232 0.21027832 9.00539551 -0.50732422 9 C-2.63342695 9.04456548 -2.63342695 9.04456548 -5.40844727 10.11352539 C-6.57798142 12.53735616 -6.57798142 12.53735616 -7.40844727 15.11352539 C-7.73844727 15.77352539 -8.06844727 16.43352539 -8.40844727 17.11352539 C-9.05196748 21.4959795 -9.35034095 25.4988505 -7.06860352 29.41040039 C-5.99704838 30.75173529 -4.88273666 32.06047906 -3.72094727 33.32446289 C-2.40844727 35.11352539 -2.40844727 35.11352539 -2.40844727 39.11352539 C-4.05844727 39.77352539 -5.70844727 40.43352539 -7.40844727 41.11352539 C-12.7268583 34.90871251 -13.82796766 30.22106237 -13.65063477 22.17211914 C-13.09303418 15.13016335 -8.44201273 0.39792559 0 0 Z " fill="#272727" transform="translate(410.408447265625,33.886474609375)"/>
<path d="M0 0 C1.37163873 0.0265051 2.74300063 0.0740941 4.11328125 0.140625 C5.16612305 0.16769531 5.16612305 0.16769531 6.24023438 0.1953125 C7.96933561 0.24236287 9.6977333 0.31410627 11.42578125 0.390625 C11.0859375 2.80859375 11.0859375 2.80859375 10.42578125 5.390625 C7.86328125 6.703125 7.86328125 6.703125 5.42578125 7.390625 C5.42578125 9.700625 5.42578125 12.010625 5.42578125 14.390625 C8.72578125 14.390625 12.02578125 14.390625 15.42578125 14.390625 C14.93078125 13.483125 14.43578125 12.575625 13.92578125 11.640625 C12.42578125 8.390625 12.42578125 8.390625 12.42578125 4.390625 C13.5078125 2.15625 13.5078125 2.15625 15.42578125 0.390625 C18.5625 0 18.5625 0 22.11328125 0.140625 C23.88251953 0.19476563 23.88251953 0.19476563 25.6875 0.25 C27.04294922 0.31960937 27.04294922 0.31960937 28.42578125 0.390625 C27.72265625 5.1640625 27.72265625 5.1640625 25.05078125 7.203125 C22.42578125 8.390625 22.42578125 8.390625 19.42578125 8.390625 C19.42578125 12.020625 19.42578125 15.650625 19.42578125 19.390625 C15.1962813 21.80748212 12.30242134 22.73895644 7.42578125 22.390625 C7.42578125 24.370625 7.42578125 26.350625 7.42578125 28.390625 C8.31265625 28.308125 9.19953125 28.225625 10.11328125 28.140625 C14.19483934 28.44866712 15.56520208 29.53004583 18.42578125 32.390625 C20.69699819 35.41891426 20.84077809 38.55402449 20.75 42.296875 C20.02035672 47.00878826 17.17360402 51.45754631 13.42578125 54.390625 C9.77579819 55.60728602 6.20779668 56.14564273 2.42578125 55.390625 C-2.62641308 52.3320858 -4.70086649 48.0617417 -7.26171875 42.953125 C-7.65166016 42.20224609 -8.04160156 41.45136719 -8.44335938 40.67773438 C-10.34644555 36.97891561 -12.12268669 33.29501338 -13.57421875 29.390625 C-9.70289847 29.96415393 -7.49249079 31.87766852 -4.57421875 34.390625 C-1.93421875 32.740625 0.70578125 31.090625 3.42578125 29.390625 C2.93078125 26.915625 2.93078125 26.915625 2.42578125 24.390625 C-0.87421875 23.730625 -4.17421875 23.070625 -7.57421875 22.390625 C-6.57421875 17.390625 -6.57421875 17.390625 -4.57421875 14.390625 C-1.44921875 14.203125 -1.44921875 14.203125 1.42578125 14.390625 C0.34322718 11.83372077 0.34322718 11.83372077 -1.57421875 9.390625 C-4.66992945 8.49855321 -4.66992945 8.49855321 -7.57421875 8.390625 C-6.66859698 3.31914309 -5.39629406 0.58975891 0 0 Z " fill="#2B2B2B" transform="translate(1339.57421875,33.609375)"/>
<path d="M0 0 C1.88138672 0.05414063 1.88138672 0.05414063 3.80078125 0.109375 C5.22970703 0.17898437 5.22970703 0.17898437 6.6875 0.25 C6.501875 0.86875 6.31625 1.4875 6.125 2.125 C5.45063824 4.29160178 5.45063824 4.29160178 6.6875 6.25 C6.91938406 13.55434783 6.91938406 13.55434783 5.6875 17.25 C6.15800781 17.56453125 6.62851562 17.8790625 7.11328125 18.203125 C10.56752433 20.57747014 13.41528504 22.64118801 15.6875 26.25 C15.96310214 20.04895188 14.91649346 14.31815522 13.6875 8.25 C12.6975 7.92 11.7075 7.59 10.6875 7.25 C16.76189825 0.38785558 16.76189825 0.38785558 20.625 -0.1875 C21.6459375 0.0290625 21.6459375 0.0290625 22.6875 0.25 C22.45740234 1.56677734 22.45740234 1.56677734 22.22265625 2.91015625 C21.38142753 8.79875727 21.32258976 14.75008969 21.125 20.6875 C21.06022461 22.50024414 21.06022461 22.50024414 20.99414062 24.34960938 C20.88860596 27.31630606 20.78649286 30.28307902 20.6875 33.25 C19.73919312 33.45290649 19.73919312 33.45290649 18.77172852 33.65991211 C16.61762149 34.07587573 16.61762149 34.07587573 15.33984375 35.69140625 C12.26129176 38.59528863 7.82370557 39.03673096 3.81640625 40.08984375 C0.51474503 41.31405521 -1.05630451 42.5946741 -3.3125 45.25 C-1.6625 46.24 -0.0125 47.23 1.6875 48.25 C2.30625 47.445625 2.925 46.64125 3.5625 45.8125 C6.3866189 42.40694485 7.03549301 42.32482047 11.5 41.8125 C15.07038775 41.89068367 15.69933748 42.25893851 18.75 44.5625 C21.3839221 48.36505648 21.15830682 52.0382216 20.5390625 56.48828125 C18.7574431 62.26628547 14.5990366 65.97564227 9.6875 69.25 C8.6975 69.25 7.7075 69.25 6.6875 69.25 C6.6875 67.25 6.6875 67.25 9.0625 64.875 C9.92875 64.00875 10.795 63.1425 11.6875 62.25 C13.92639816 58.94495985 14.0234609 56.19754055 13.6875 52.25 C13.0275 51.26 12.3675 50.27 11.6875 49.25 C9.1875 48.75 9.1875 48.75 6.6875 49.25 C6.0275 50.24 5.3675 51.23 4.6875 52.25 C5.1825 53.03375 5.6775 53.8175 6.1875 54.625 C7.6875 57.25 7.6875 57.25 7.6875 59.25 C5.14067975 58.02752628 2.83273488 56.7075529 0.4375 55.1875 C-3.442404 52.92352131 -6.86415588 52.5621645 -11.3125 52.25 C-10.85550722 47.22307937 -8.32008252 44.10103739 -5.3125 40.25 C-6.3025 39.92 -7.2925 39.59 -8.3125 39.25 C-7.70073859 35.82413611 -6.87179241 33.65179749 -4.3125 31.25 C-1.26327001 30.5950801 1.76422191 30.55292894 4.875 30.5 C5.71998047 30.47035156 6.56496094 30.44070312 7.43554688 30.41015625 C9.51901822 30.3395301 11.60326506 30.29249205 13.6875 30.25 C6.82556519 26.60686692 1.44878159 25.72774554 -6.3125 26.25 C-5.60143995 20.91704965 -3.38969764 19.6476647 0.6875 16.25 C1.64297581 13.57891902 1.64297581 13.57891902 1.6875 11.25 C-1.30988941 9.25174039 -1.94597508 8.97449602 -5.3125 9 C-5.993125 8.99484375 -6.67375 8.9896875 -7.375 8.984375 C-9.63666007 9.15082397 -9.63666007 9.15082397 -12.3125 11.25 C-12.168125 11.930625 -12.02375 12.61125 -11.875 13.3125 C-11.689375 14.281875 -11.50375 15.25125 -11.3125 16.25 C-11.044375 17.425625 -10.77625 18.60125 -10.5 19.8125 C-10.3125 23.25 -10.3125 23.25 -12.125 25.6875 C-14.3125 27.25 -14.3125 27.25 -16.3125 27.25 C-17.66955628 19.10766232 -18.53318571 13.2367044 -13.89453125 6.109375 C-9.57496779 1.03255474 -6.70347554 -0.25059722 0 0 Z " fill="#2F2F2F" transform="translate(693.3125,33.75)"/>
<path d="M0 0 C1.88138672 0.05414063 1.88138672 0.05414063 3.80078125 0.109375 C5.22970703 0.17898437 5.22970703 0.17898437 6.6875 0.25 C6.501875 0.86875 6.31625 1.4875 6.125 2.125 C5.45063824 4.29160178 5.45063824 4.29160178 6.6875 6.25 C6.91938406 13.55434783 6.91938406 13.55434783 5.6875 17.25 C6.15800781 17.56453125 6.62851563 17.8790625 7.11328125 18.203125 C10.56752433 20.57747014 13.41528504 22.64118801 15.6875 26.25 C15.96310214 20.04895188 14.91649346 14.31815522 13.6875 8.25 C12.6975 7.92 11.7075 7.59 10.6875 7.25 C16.76189825 0.38785558 16.76189825 0.38785558 20.625 -0.1875 C21.6459375 0.0290625 21.6459375 0.0290625 22.6875 0.25 C22.45740234 1.56677734 22.45740234 1.56677734 22.22265625 2.91015625 C21.38142753 8.79875727 21.32258976 14.75008969 21.125 20.6875 C21.06022461 22.50024414 21.06022461 22.50024414 20.99414062 24.34960938 C20.88860596 27.31630606 20.78649286 30.28307902 20.6875 33.25 C19.3675 32.92 18.0475 32.59 16.6875 32.25 C16.4090625 33.1471875 16.4090625 33.1471875 16.125 34.0625 C13.51646995 38.03200225 8.8901441 38.89628115 4.5 40.1875 C1.3636212 41.37235421 -0.04058346 42.84186577 -2.3125 45.25 C-1.43207031 45.28738281 -0.55164063 45.32476562 0.35546875 45.36328125 C1.51691406 45.42902344 2.67835938 45.49476562 3.875 45.5625 C5.59783203 45.64951172 5.59783203 45.64951172 7.35546875 45.73828125 C11.97542674 46.44779414 14.60812598 48.17062598 17.875 51.4375 C22.60452522 58.77641845 21.9187115 66.82362517 21.6875 75.25 C21.0275 75.25 20.3675 75.25 19.6875 75.25 C19.51734375 74.36957031 19.3471875 73.48914063 19.171875 72.58203125 C18.92953125 71.42058594 18.6871875 70.25914063 18.4375 69.0625 C18.20546875 67.91394531 17.9734375 66.76539062 17.734375 65.58203125 C16.22021629 60.76271267 14.17653939 58.24485095 9.9921875 55.44921875 C5.78953499 53.92414272 2.23706095 53.91626451 -2.1875 54.0625 C-2.97125 54.07603516 -3.755 54.08957031 -4.5625 54.10351562 C-6.47946782 54.13858211 -8.39607751 54.19237928 -10.3125 54.25 C-8.3125 49.25 -6.3125 44.25 -4.3125 39.25 C-5.6325 39.25 -6.9525 39.25 -8.3125 39.25 C-7.18798273 36.2780615 -6.08956209 33.91559313 -4.3125 31.25 C-2.43310547 30.81762695 -2.43310547 30.81762695 -0.1796875 30.73828125 C1.02880859 30.68510742 1.02880859 30.68510742 2.26171875 30.63085938 C3.10347656 30.60830078 3.94523437 30.58574219 4.8125 30.5625 C5.66199219 30.52833984 6.51148438 30.49417969 7.38671875 30.45898438 C9.48651105 30.37640827 11.58698564 30.31153022 13.6875 30.25 C6.82556519 26.60686692 1.44878159 25.72774554 -6.3125 26.25 C-5.60143995 20.91704965 -3.38969764 19.6476647 0.6875 16.25 C1.64297581 13.57891902 1.64297581 13.57891902 1.6875 11.25 C-1.30988941 9.25174039 -1.94597508 8.97449602 -5.3125 9 C-5.993125 8.99484375 -6.67375 8.9896875 -7.375 8.984375 C-9.63666007 9.15082397 -9.63666007 9.15082397 -12.3125 11.25 C-12.168125 11.930625 -12.02375 12.61125 -11.875 13.3125 C-11.689375 14.281875 -11.50375 15.25125 -11.3125 16.25 C-11.044375 17.425625 -10.77625 18.60125 -10.5 19.8125 C-10.3125 23.25 -10.3125 23.25 -12.125 25.6875 C-14.3125 27.25 -14.3125 27.25 -16.3125 27.25 C-17.66955628 19.10766232 -18.53318571 13.2367044 -13.89453125 6.109375 C-9.57496779 1.03255474 -6.70347554 -0.25059722 0 0 Z " fill="#2E2E2E" transform="translate(149.3125,33.75)"/>
<path d="M0 0 C2.69540315 -0.26686213 5.15847464 -0.34818073 7.8515625 -0.29296875 C8.62559418 -0.28872391 9.39962585 -0.28447906 10.19711304 -0.28010559 C12.67342677 -0.26328998 15.14893158 -0.22563395 17.625 -0.1875 C19.30207159 -0.17245682 20.97915592 -0.15876778 22.65625 -0.14648438 C26.77114581 -0.11337721 30.88543569 -0.06157637 35 0 C34.93433838 0.97888184 34.86867676 1.95776367 34.80102539 2.96630859 C33.90341529 17.17684654 33.67250039 31.39069083 33.4375 45.625 C33.39419119 48.09635964 33.35057353 50.56771388 33.30664062 53.0390625 C33.20087268 59.02598428 33.09889344 65.01296092 33 71 C32.01 71 31.02 71 30 71 C29.94465088 69.9169458 29.88930176 68.8338916 29.83227539 67.71801758 C29.62333205 63.63817801 29.41219092 59.55845447 29.20043945 55.47875977 C29.1096855 53.72455815 29.01950048 51.97032698 28.92993164 50.21606445 C28.45946253 41.00906288 27.93453033 31.8198259 27.18969727 22.63012695 C26.96229503 19.47722563 26.89942216 16.34796098 26.9375 13.1875 C26.94652344 12.19105469 26.95554687 11.19460937 26.96484375 10.16796875 C26.97644531 9.45253906 26.98804688 8.73710938 27 8 C24.03 8 21.06 8 18 8 C18.33 16.91 18.66 25.82 19 35 C14.74784666 33.29913866 11.75501878 31.50334585 8 29 C3.21728627 26.34293681 -1.68132826 26.81410468 -7 27 C-6.52877252 20.0886636 -3.79363994 14.27795839 -1 8 C-1.99 8 -2.98 8 -4 8 C-2.87548273 5.0280615 -1.77706209 2.66559313 0 0 Z " fill="#2B2B2B" transform="translate(301,34)"/>
<path d="M0 0 C2.69540315 -0.26686213 5.15847464 -0.34818073 7.8515625 -0.29296875 C8.62559418 -0.28872391 9.39962585 -0.28447906 10.19711304 -0.28010559 C12.67342677 -0.26328998 15.14893158 -0.22563395 17.625 -0.1875 C19.30207159 -0.17245682 20.97915592 -0.15876778 22.65625 -0.14648438 C26.77114581 -0.11337721 30.88543569 -0.06157637 35 0 C35.495 1.485 35.495 1.485 36 3 C35.67 3.66 35.34 4.32 35 5 C34.85053231 7.09222215 34.76267274 9.18894259 34.70288086 11.28564453 C34.68322769 11.92967224 34.66357452 12.57369995 34.64332581 13.23724365 C34.57938245 15.36899517 34.52209289 17.50087156 34.46484375 19.6328125 C34.42184127 21.10970231 34.37842474 22.58658011 34.33460999 24.06344604 C34.22033382 27.95299438 34.11169531 31.8426807 34.00421143 35.73242188 C33.89356756 39.70061904 33.77761843 43.66866075 33.66210938 47.63671875 C33.43619977 55.42433638 33.21624293 63.21210732 33 71 C32.01 70.67 31.02 70.34 30 70 C29.01 49.54 28.02 29.08 27 8 C24.03 8 21.06 8 18 8 C18.33 16.91 18.66 25.82 19 35 C15.29812724 33.14906362 11.71740002 31.16486308 8.12109375 29.12109375 C4.54604926 27.23152143 1.79197312 26.88581853 -2.1875 26.9375 C-3.08855469 26.94652344 -3.98960937 26.95554687 -4.91796875 26.96484375 C-5.94857422 26.98224609 -5.94857422 26.98224609 -7 27 C-6.41347648 22.51006131 -5.2356462 18.77456816 -3.4375 14.625 C-2.98246094 13.56539062 -2.52742187 12.50578125 -2.05859375 11.4140625 C-1.70925781 10.61742187 -1.35992188 9.82078125 -1 9 C-1.99 8.67 -2.98 8.34 -4 8 C-2.87548273 5.0280615 -1.77706209 2.66559313 0 0 Z " fill="#2A2A2A" transform="translate(813,34)"/>
<path d="M0 0 C2.69540315 -0.26686213 5.15847464 -0.34818073 7.8515625 -0.29296875 C8.62559418 -0.28872391 9.39962585 -0.28447906 10.19711304 -0.28010559 C12.67342677 -0.26328998 15.14893158 -0.22563395 17.625 -0.1875 C19.30207159 -0.17245682 20.97915592 -0.15876778 22.65625 -0.14648438 C26.77114581 -0.11337721 30.88543569 -0.06157637 35 0 C34.93433838 1.05614502 34.86867676 2.11229004 34.80102539 3.20043945 C33.95630332 17.52307297 33.68004065 31.84394282 33.4375 46.1875 C33.39417989 48.60612518 33.350562 51.02474504 33.30664062 53.44335938 C33.20100288 59.29551625 33.09900743 65.14772739 33 71 C32.01 71 31.02 71 30 71 C29.970271 69.98522583 29.970271 69.98522583 29.93994141 68.94995117 C29.50398042 54.61020681 28.84209564 40.32347903 27.66064453 26.02416992 C27.17173177 19.98947078 26.90479857 14.05481101 27 8 C24.03 8 21.06 8 18 8 C18.33 16.91 18.66 25.82 19 35 C15.4649448 33.58597792 12.94988979 32.45728055 9.875 30.4375 C5.76705184 27.74415656 2.73490663 26.87357264 -2.1875 26.9375 C-3.08855469 26.94652344 -3.98960937 26.95554687 -4.91796875 26.96484375 C-5.94857422 26.98224609 -5.94857422 26.98224609 -7 27 C-6.32739631 20.61026495 -3.85677683 14.71355366 -1 9 C-1.99 8.67 -2.98 8.34 -4 8 C-2.87548273 5.0280615 -1.77706209 2.66559313 0 0 Z " fill="#282828" transform="translate(358,34)"/>
<path d="M0 0 C1.97119141 -0.34057617 1.97119141 -0.34057617 4.3515625 -0.29296875 C5.20234375 -0.28330078 6.053125 -0.27363281 6.9296875 -0.26367188 C7.81914063 -0.23853516 8.70859375 -0.21339844 9.625 -0.1875 C10.97078125 -0.16719727 10.97078125 -0.16719727 12.34375 -0.14648438 C14.56309789 -0.11106925 16.78125188 -0.06168461 19 0 C17.375 5.75 17.375 5.75 14 8 C14.3403125 8.41507813 14.680625 8.83015625 15.03125 9.2578125 C20.1251706 15.73359454 24.02196836 22.81127278 28 30 C27.63771166 19.28819165 27.63771166 19.28819165 25 9 C24.34 8.67 23.68 8.34 23 8 C24.44865567 4.61980343 26.08219573 2.26940332 29 0 C32.25 -0.25 32.25 -0.25 35 0 C34.67854004 1.25482178 34.35708008 2.50964355 34.02587891 3.80249023 C32.81644426 9.26760222 32.65160762 14.57954181 32.5859375 20.16015625 C32.56657135 21.19063583 32.5472052 22.22111542 32.5272522 23.28282166 C32.46793874 26.54263281 32.42126534 29.80248022 32.375 33.0625 C32.33677577 35.28582186 32.29772152 37.50912962 32.2578125 39.73242188 C32.16227747 45.1548218 32.07709192 50.57730816 32 56 C30.58738892 55.27574829 30.58738892 55.27574829 29.14624023 54.53686523 C27.88797126 53.89805175 26.6295827 53.25947376 25.37109375 52.62109375 C24.75310913 52.30346069 24.13512451 51.98582764 23.49841309 51.65856934 C16.04279138 47.89030542 8.43158157 45.2973682 0 46 C-1.485 46.495 -1.485 46.495 -3 47 C-2.40998644 43.0174085 -1.06003974 40.62289121 2 38 C8.97374821 36.54521147 14.72230511 38.1517624 20.828125 41.5546875 C23.66194009 43.4404997 25.78796528 45.41929283 28 48 C28.90501224 42.80120744 29.15158836 38.68381529 26.08984375 34.20703125 C24.36807491 32.36284917 22.60669085 30.55505232 20.8125 28.78125 C17.99589875 25.99594432 15.53562851 23.09141064 13.0625 20 C10.81414509 17.19261673 8.60539861 14.48288771 6 12 C2.83884224 13.36983503 2.0072908 13.9890638 0 17 C0.680625 17.185625 1.36125 17.37125 2.0625 17.5625 C7.71818244 20.33017438 12.25292802 25.34426356 15 31 C15 31.66 15 32.32 15 33 C11.73869119 31.8789251 9.08373107 30.42126967 6.25 28.5 C2.03459413 25.77285765 -2.07974441 24.7630952 -7 24 C-6.42944232 20.00609621 -5.18996357 17.36917472 -3 14 C-2.443125 13.071875 -1.88625 12.14375 -1.3125 11.1875 C-0.879375 10.465625 -0.44625 9.74375 0 9 C-0.99 8.67 -1.98 8.34 -3 8 C-2.45276317 4.62537285 -1.9451 2.91765 0 0 Z " fill="#282828" transform="translate(597,34)"/>
<path d="M0 0 C-0.66 13.86 -1.32 27.72 -2 42 C-6.62601423 40.84349644 -10.75344009 39.03602076 -15.125 37.15625 C-19.55169084 35.37595042 -22.96770019 34.88056786 -27.75 34.9375 C-29.22726562 34.95103516 -29.22726562 34.95103516 -30.734375 34.96484375 C-31.48203125 34.97644531 -32.2296875 34.98804688 -33 35 C-32.43040847 31.37386801 -31.07625466 29.74482259 -28.4375 27.25 C-27.47650391 26.32960938 -27.47650391 26.32960938 -26.49609375 25.390625 C-26.00238281 24.93171875 -25.50867187 24.4728125 -25 24 C-26.12451727 21.0280615 -27.22293791 18.66559313 -29 16 C-29.82880684 12.23269618 -29.50604021 9.95014714 -27.69140625 6.54296875 C-19.76468059 -3.58473909 -14.25284258 0 0 0 Z " fill="#262626" transform="translate(1061,34)"/>
<path d="M0 0 C2.88916016 -0.34057617 2.88916016 -0.34057617 6.5390625 -0.29296875 C8.49199219 -0.2784668 8.49199219 -0.2784668 10.484375 -0.26367188 C11.86458923 -0.23860388 13.24479756 -0.21320902 14.625 -0.1875 C16.01300663 -0.17245517 17.40102867 -0.15876641 18.7890625 -0.14648438 C22.19309509 -0.1110257 25.59635622 -0.06160298 29 0 C30.27858863 3.8357659 29.26799366 5.21877352 28 9 C27.78030862 11.30356337 27.64734991 13.6164869 27.5859375 15.9296875 C27.54726562 17.21875 27.50859375 18.5078125 27.46875 19.8359375 C27.43730242 21.18228707 27.40605489 22.52864132 27.375 23.875 C27.33676959 25.24481514 27.29771499 26.61460755 27.2578125 27.984375 C27.16377285 31.32278263 27.07811943 34.66118814 27 38 C23.44567472 37.23357116 21.73005044 36.12879982 19.0625 33.625 C13.66536437 28.5819508 9.6318468 26.56183219 2.1875 26.3125 C1.14819336 26.26125977 1.14819336 26.26125977 0.08789062 26.20898438 C-1.60752849 26.12713656 -3.30373458 26.06187635 -5 26 C-4.125 21.125 -4.125 21.125 -3 20 C-2.79231771 18.52603261 -2.63283983 17.0450874 -2.5 15.5625 C-2.10958904 11.21917808 -2.10958904 11.21917808 -1 9 C-1.99 8.67 -2.98 8.34 -4 8 C-2.87548273 5.0280615 -1.77706209 2.66559313 0 0 Z " fill="#2C2C2C" transform="translate(1082,34)"/>
<path d="M0 0 C1.05692047 0.00636726 1.05692047 0.00636726 2.13519287 0.01286316 C4.37698212 0.02960337 6.61785931 0.06724471 8.859375 0.10546875 C10.38279948 0.12052171 11.90623811 0.13420905 13.4296875 0.14648438 C17.15654441 0.17949084 20.88287063 0.23124021 24.609375 0.29296875 C24.28791504 1.3075415 23.96645508 2.32211426 23.63525391 3.36743164 C22.60843771 6.97237681 22.29921124 10.34389124 22.1953125 14.1015625 C22.15664063 15.34228516 22.11796875 16.58300781 22.078125 17.86132812 C22.0471875 19.13814453 22.01625 20.41496094 21.984375 21.73046875 C21.94570313 23.03435547 21.90703125 24.33824219 21.8671875 25.68164062 C21.77330799 28.88527874 21.68762346 32.08891707 21.609375 35.29296875 C18.21812011 34.54230726 16.2228263 33.45874012 13.484375 31.29296875 C9.15374437 27.89383226 7.07333454 27.17101173 1.484375 27.23046875 C0.38867188 27.23949219 -0.70703125 27.24851562 -1.8359375 27.2578125 C-2.67898438 27.26941406 -3.52203125 27.28101562 -4.390625 27.29296875 C-3.86710927 22.31956932 -2.23808002 18.13375265 -0.328125 13.5625 C0.38638598 11.832788 1.01756172 10.06840858 1.609375 8.29296875 C-1.360625 8.29296875 -4.330625 8.29296875 -7.390625 8.29296875 C-9.65880711 18.35000264 -10.9668949 27.99194393 -11.390625 38.29296875 C-12.380625 38.29296875 -13.370625 38.29296875 -14.390625 38.29296875 C-14.46504489 34.11209723 -14.51935318 29.93158145 -14.55541992 25.75024414 C-14.5704626 24.32927734 -14.59090204 22.90835662 -14.61694336 21.48754883 C-14.65352847 19.43949989 -14.67039597 17.39206725 -14.68359375 15.34375 C-14.6993042 14.11309814 -14.71501465 12.88244629 -14.73120117 11.61450195 C-14.26877803 7.10463323 -12.76285392 4.71975289 -9.66503906 1.4987793 C-6.38481108 -0.24027674 -3.69533671 -0.0439921 0 0 Z " fill="#2B2B2B" transform="translate(779.390625,33.70703125)"/>
<path d="M0 0 C1.19923096 0.02094727 2.39846191 0.04189453 3.6340332 0.06347656 C4.93276367 0.07636719 6.23149414 0.08925781 7.56958008 0.10253906 C8.94133548 0.13596055 10.31308027 0.16982034 11.68481445 0.20410156 C13.06825257 0.22416781 14.4517183 0.24241838 15.83520508 0.25878906 C19.22327095 0.30600949 22.60994687 0.37186087 25.99731445 0.45410156 C25.53908977 3.92351703 25.10599762 7.12805205 23.99731445 10.45410156 C23.84660648 12.59071414 23.74871785 14.7312228 23.6809082 16.87207031 C23.61806641 18.75249023 23.61806641 18.75249023 23.55395508 20.67089844 C23.51463867 21.98123047 23.47532227 23.2915625 23.43481445 24.64160156 C23.39160453 25.97690135 23.34798945 27.31218809 23.30395508 28.64746094 C23.19774944 31.91623453 23.09570448 35.18508489 22.99731445 38.45410156 C22.00731445 38.45410156 21.01731445 38.45410156 19.99731445 38.45410156 C19.44043945 37.73222656 18.88356445 37.01035156 18.30981445 36.26660156 C14.49812739 31.63076595 8.81407487 28.05371068 2.99731445 26.45410156 C-1.08284816 26.14213742 -5.08419804 26.14793906 -9.00268555 27.45410156 C-8.27985718 23.694004 -7.42587837 19.98245266 -6.50268555 16.26660156 C-6.24487305 15.22117187 -5.98706055 14.17574219 -5.72143555 13.09863281 C-5.00268555 10.45410156 -5.00268555 10.45410156 -4.00268555 8.45410156 C-4.99268555 8.45410156 -5.98268555 8.45410156 -7.00268555 8.45410156 C-6.17874283 3.84002233 -4.91972823 0.74401939 0 0 Z " fill="#292929" transform="translate(954.002685546875,33.5458984375)"/>
<path d="M0 0 C1.02574883 0.00424484 1.02574883 0.00424484 2.07221985 0.00857544 C4.2527529 0.01975566 6.4328727 0.04485559 8.61328125 0.0703125 C10.09309302 0.08034512 11.57291124 0.08947048 13.05273438 0.09765625 C16.67721725 0.11968769 20.30145891 0.15420248 23.92578125 0.1953125 C23.46755657 3.66472796 23.03446442 6.86926299 21.92578125 10.1953125 C21.84311639 12.11438167 21.81837462 14.03620724 21.828125 15.95703125 C21.83134766 17.07529297 21.83457031 18.19355469 21.83789062 19.34570312 C21.84626953 20.51294922 21.85464844 21.68019531 21.86328125 22.8828125 C21.86779297 24.06166016 21.87230469 25.24050781 21.87695312 26.45507812 C21.88874852 29.36854039 21.90520855 32.28190113 21.92578125 35.1953125 C18.53452636 34.44465101 16.53923255 33.36108387 13.80078125 31.1953125 C9.47015062 27.79617601 7.38974079 27.07335548 1.80078125 27.1328125 C0.70507812 27.14183594 -0.390625 27.15085937 -1.51953125 27.16015625 C-2.36257813 27.17175781 -3.205625 27.18335937 -4.07421875 27.1953125 C-3.4654612 22.59114624 -2.22698919 18.63047926 -0.51171875 14.3203125 C-0.05667969 13.16789062 0.39835937 12.01546875 0.8671875 10.828125 C1.21652344 9.95929687 1.56585937 9.09046875 1.92578125 8.1953125 C-2.52921875 8.6903125 -2.52921875 8.6903125 -7.07421875 9.1953125 C-9.53556893 18.85754298 -11.68833049 28.18151228 -12.07421875 38.1953125 C-13.06421875 38.1953125 -14.05421875 38.1953125 -15.07421875 38.1953125 C-15.22034062 33.69565813 -15.30857105 29.19662012 -15.38671875 24.6953125 C-15.42861328 23.426875 -15.47050781 22.1584375 -15.51367188 20.8515625 C-15.610047 13.44995324 -15.38606657 7.73811022 -10.07421875 2.1953125 C-6.34881213 -0.28829191 -4.44358902 -0.0362742 0 0 Z " fill="#2B2B2B" transform="translate(1538.07421875,33.8046875)"/>
<path d="M0 0 C6.27 0 12.54 0 19 0 C18.67 1.65 18.34 3.3 18 5 C17.154375 5.45375 16.30875 5.9075 15.4375 6.375 C14.2309375 7.179375 14.2309375 7.179375 13 8 C12.16616698 11.41408529 12.16616698 11.41408529 13 15 C15.1020938 17.52140971 15.1020938 17.52140971 18 20 C21.19255171 23.8639467 24.21977813 27.82966719 27 32 C26.57092292 20.32772908 26.57092292 20.32772908 24 9 C23.34 8.67 22.68 8.34 22 8 C23.44518781 4.6278951 25.12350453 2.30119637 28 0 C30.75 -0.25 30.75 -0.25 33 0 C33.495 0.99 33.495 0.99 34 2 C33.54874756 3.31895264 33.54874756 3.31895264 33.08837891 4.66455078 C31.87734725 8.37588198 31.68257136 11.46962189 31.5859375 15.3671875 C31.56657135 16.04677521 31.5472052 16.72636292 31.5272522 17.42654419 C31.46794901 19.57590579 31.42127109 21.72532241 31.375 23.875 C31.33677468 25.3411679 31.29772036 26.80731443 31.2578125 28.2734375 C31.16228956 31.84876164 31.07807874 35.42424748 31 39 C27.79088808 38.40674464 25.98744159 37.42413843 23.546875 35.27734375 C22.61875 34.47006836 22.61875 34.47006836 21.671875 33.64648438 C21.03765625 33.08251953 20.4034375 32.51855469 19.75 31.9375 C18.77546875 31.08575195 18.77546875 31.08575195 17.78125 30.21679688 C16.18200283 28.8174556 14.59025881 27.40954759 13 26 C12.47212891 26.84884766 12.47212891 26.84884766 11.93359375 27.71484375 C9.369739 31.52380811 7.92136647 33.67094055 3.5 35.25 C-0.76912682 34.94506237 -2.74078775 33.71601021 -6 31 C-7.72986655 27.5402669 -7.48431489 23.78289201 -7 20 C-4.94161475 16.66399633 -3.2606736 15.1737824 0 13 C2.04296875 12.8046875 2.04296875 12.8046875 4.1875 12.875 C6.0746875 12.936875 6.0746875 12.936875 8 13 C7.33576793 10.96116112 7.33576793 10.96116112 6 9 C3.81458448 8.3006486 3.81458448 8.3006486 1.375 8.25 C0.14910156 8.16492188 0.14910156 8.16492188 -1.1015625 8.078125 C-1.72804688 8.05234375 -2.35453125 8.0265625 -3 8 C-2.34099246 4.92463146 -1.46132217 2.92264434 0 0 Z " fill="#2A2A2A" transform="translate(1279,34)"/>
<path d="M0 0 C1.23327026 0.0314209 1.23327026 0.0314209 2.49145508 0.06347656 C3.38413086 0.07636719 4.27680664 0.08925781 5.1965332 0.10253906 C6.12530273 0.13605469 7.05407227 0.16957031 8.01098633 0.20410156 C8.95135742 0.22214844 9.89172852 0.24019531 10.8605957 0.25878906 C13.18258522 0.30593606 15.50252322 0.37171925 17.82348633 0.45410156 C17.12036133 5.22753906 17.12036133 5.22753906 14.44848633 7.26660156 C11.82348633 8.45410156 11.82348633 8.45410156 8.82348633 8.45410156 C9.22637237 14.39667068 9.91642295 16.85755642 13.82348633 21.45410156 C16.33469809 27.29218722 17.64318027 32.86262973 18.51098633 39.14160156 C18.63836182 40.0377417 18.7657373 40.93388184 18.89697266 41.85717773 C20.17554535 51.71959525 20.09495215 61.53051752 19.82348633 71.45410156 C19.16348633 71.45410156 18.50348633 71.45410156 17.82348633 71.45410156 C17.72326172 70.63844727 17.62303711 69.82279297 17.51977539 68.98242188 C17.13435201 65.89466499 16.7378176 62.80857556 16.33422852 59.72314453 C16.08013873 57.75561407 15.838364 55.78650556 15.59692383 53.81738281 C14.6248674 46.45218602 13.18936264 39.71663256 10.61938477 32.73828125 C9.82348633 30.45410156 9.82348633 30.45410156 9.82348633 28.45410156 C9.16348633 28.45410156 8.50348633 28.45410156 7.82348633 28.45410156 C7.69973633 29.59878906 7.69973633 29.59878906 7.57348633 30.76660156 C6.82348633 33.45410156 6.82348633 33.45410156 5.26098633 35.26660156 C1.78595028 36.95956784 -1.43875653 37.26988189 -5.17651367 36.45410156 C-9.06034967 33.31397884 -10.97890737 31.16668953 -11.55151367 26.20410156 C-11.05446111 21.23357591 -9.66491144 19.94249933 -6.17651367 16.45410156 C-3.08762845 14.39484475 -2.4671544 14.21506416 1.01098633 14.32910156 C2.89817383 14.39097656 2.89817383 14.39097656 4.82348633 14.45410156 C4.49348633 13.13410156 4.16348633 11.81410156 3.82348633 10.45410156 C0.52348633 9.79410156 -2.77651367 9.13410156 -6.17651367 8.45410156 C-4.28657284 0.89433825 -4.28657284 0.89433825 0 0 Z " fill="#2A2A2A" transform="translate(529.176513671875,33.5458984375)"/>
<path d="M0 0 C2.15478516 -0.34057617 2.15478516 -0.34057617 4.7890625 -0.29296875 C5.73007812 -0.28330078 6.67109375 -0.27363281 7.640625 -0.26367188 C9.11789062 -0.2259668 9.11789062 -0.2259668 10.625 -0.1875 C11.61757813 -0.17396484 12.61015625 -0.16042969 13.6328125 -0.14648438 C16.08908072 -0.11105743 18.54427285 -0.06166196 21 0 C20.6796875 2.38671875 20.6796875 2.38671875 20 5 C16.79266696 7.02201431 14.80845564 8 11 8 C11.29178285 13.64113503 11.76086803 15.94177698 15.67016602 20.1484375 C21.45547193 28.20346964 21.75469458 39.78303013 22.25 49.3125 C22.32734375 50.52228516 22.4046875 51.73207031 22.484375 52.97851562 C22.85277103 58.99455438 23.08983945 64.97327008 23 71 C22.01 71 21.02 71 20 71 C19.89977539 70.11328613 19.79955078 69.22657227 19.69628906 68.31298828 C19.31223808 64.9754024 18.91558995 61.63979027 18.51074219 58.3046875 C18.33912556 56.87004962 18.17232766 55.43482574 18.01074219 53.99902344 C17.05313936 45.52246506 15.80821182 37.75426689 12 30 C11.195625 30.804375 10.39125 31.60875 9.5625 32.4375 C6 36 6 36 2.3125 36.375 C-1.46416377 36.29334241 -4.10009926 35.46737058 -6.92578125 32.7578125 C-9.17262894 29.08115264 -8.91524243 25.09167204 -8 21 C-5.56543724 17.84164831 -3.30027757 16.20018505 0 14 C2.33199388 13.92094936 4.66832622 13.91201231 7 14 C6.06454002 11.40743101 6.06454002 11.40743101 4 9 C1.27285838 8.23618519 -1.14167178 8.14057352 -4 8 C-2.87548273 5.0280615 -1.77706209 2.66559313 0 0 Z " fill="#2A2A2A" transform="translate(728,34)"/>
<path d="M0 0 C2.15478516 -0.34057617 2.15478516 -0.34057617 4.7890625 -0.29296875 C5.73007813 -0.28330078 6.67109375 -0.27363281 7.640625 -0.26367188 C9.11789063 -0.2259668 9.11789063 -0.2259668 10.625 -0.1875 C11.61757812 -0.17396484 12.61015625 -0.16042969 13.6328125 -0.14648438 C16.08908072 -0.11105743 18.54427285 -0.06166196 21 0 C20.6796875 2.38671875 20.6796875 2.38671875 20 5 C16.79266696 7.02201431 14.80845564 8 11 8 C11.29178285 13.64113503 11.76086803 15.94177698 15.67016602 20.1484375 C21.45547193 28.20346964 21.75469458 39.78303013 22.25 49.3125 C22.32734375 50.52228516 22.4046875 51.73207031 22.484375 52.97851562 C22.85277103 58.99455438 23.08983945 64.97327008 23 71 C22.01 71 21.02 71 20 71 C19.89977539 70.11328613 19.79955078 69.22657227 19.69628906 68.31298828 C19.31223808 64.9754024 18.91558995 61.63979027 18.51074219 58.3046875 C18.33912556 56.87004962 18.17232766 55.43482574 18.01074219 53.99902344 C17.05313936 45.52246506 15.80821182 37.75426689 12 30 C11.195625 30.804375 10.39125 31.60875 9.5625 32.4375 C6 36 6 36 2.3125 36.375 C-1.46416377 36.29334241 -4.10009926 35.46737058 -6.92578125 32.7578125 C-9.17262894 29.08115264 -8.91524243 25.09167204 -8 21 C-5.56543724 17.84164831 -3.30027757 16.20018505 0 14 C2.33199388 13.92094936 4.66832622 13.91201231 7 14 C6.06454002 11.40743101 6.06454002 11.40743101 4 9 C1.27285838 8.23618519 -1.14167178 8.14057352 -4 8 C-2.87548273 5.0280615 -1.77706209 2.66559313 0 0 Z " fill="#2A2A2A" transform="translate(184,34)"/>
<path d="M0 0 C10.89 0 21.78 0 33 0 C32.76990234 4.64449219 32.76990234 4.64449219 32.53515625 9.3828125 C31.933061 22.20929893 31.67158762 35.03744399 31.4375 47.875 C31.39414277 50.13542172 31.35052419 52.39583844 31.30664062 54.65625 C31.20142986 60.10411305 31.09938508 65.55202772 31 71 C30.01 71 29.02 71 28 71 C27.57010307 63.15305641 27.14316467 55.30595582 26.71826172 47.45874023 C26.57364367 44.79039554 26.42793085 42.12211705 26.28173828 39.45385742 C26.07146484 35.61386378 25.86362484 31.77374489 25.65625 27.93359375 C25.59062866 26.74479111 25.52500732 25.55598846 25.45739746 24.3311615 C25.16519197 18.87923116 24.91680139 13.45990871 25 8 C22.69 8 20.38 8 18 8 C17.34 16.91 16.68 25.82 16 35 C15.34 35 14.68 35 14 35 C13.49578271 31.25055444 12.99735969 27.50036087 12.5 23.75 C12.35691406 22.68652344 12.21382812 21.62304688 12.06640625 20.52734375 C11.93105469 19.50253906 11.79570313 18.47773437 11.65625 17.421875 C11.53056641 16.47924805 11.40488281 15.53662109 11.27539062 14.56542969 C11 12 11 12 11 8 C9.02 8 7.04 8 5 8 C4.97421875 8.59167969 4.9484375 9.18335938 4.921875 9.79296875 C4.54554526 15.0359263 3.98840916 18.23949994 0 22 C-2.41800866 23.66238095 -3.34259826 24.10956696 -6.25 23.625 C-7.11625 23.315625 -7.11625 23.315625 -8 23 C-7.21625 22.566875 -6.4325 22.13375 -5.625 21.6875 C-1.74926598 17.7194866 -1.62002054 13.36734195 -1 8 C-1.66 8 -2.32 8 -3 8 C-2.34099246 4.92463146 -1.46132217 2.92264434 0 0 Z " fill="#2A2A2A" transform="translate(1120,34)"/>
<path d="M0 0 C1.87939453 -0.34057617 1.87939453 -0.34057617 4.1328125 -0.29296875 C4.93847656 -0.28330078 5.74414062 -0.27363281 6.57421875 -0.26367188 C7.41597656 -0.23853516 8.25773437 -0.21339844 9.125 -0.1875 C9.97449219 -0.17396484 10.82398438 -0.16042969 11.69921875 -0.14648438 C13.79974837 -0.11108219 15.89995293 -0.05727401 18 0 C17.75 2.375 17.75 2.375 17 5 C14.9375 6.3125 14.9375 6.3125 13 7 C13.59167969 7.82242188 14.18335938 8.64484375 14.79296875 9.4921875 C19.47998337 16.08612031 23.67129683 22.58987184 27 30 C27.26442904 22.40501039 26.60881575 15.42640842 25 8 C24.01 7.67 23.02 7.34 22 7 C28.07439825 0.13785558 28.07439825 0.13785558 31.9375 -0.4375 C32.9584375 -0.2209375 32.9584375 -0.2209375 34 0 C33.84152588 1.0010376 33.68305176 2.0020752 33.51977539 3.03344727 C32.97700021 6.84435196 32.79540523 10.61533412 32.68359375 14.46484375 C32.66281265 15.14301651 32.64203156 15.82118927 32.62062073 16.51991272 C32.55590691 18.65901831 32.4966091 20.79823296 32.4375 22.9375 C32.39424016 24.39909924 32.35062366 25.86068797 32.30664062 27.32226562 C32.20030749 30.8813984 32.0988267 34.44064997 32 38 C30.68 38 29.36 38 28 38 C26.1328125 36.12109375 26.1328125 36.12109375 24.125 33.4375 C20.13159241 28.31363029 15.89286394 23.53991713 11.4375 18.8125 C10.80537598 18.14081787 10.17325195 17.46913574 9.52197266 16.77709961 C8.0173981 15.18213475 6.50910536 13.59067863 5 12 C1.83884224 13.36983503 1.0072908 13.9890638 -1 17 C-0.42378906 17.09796875 0.15242188 17.1959375 0.74609375 17.296875 C5.85719551 18.89132615 9.92470707 23.52147222 13 27.75 C14 30 14 30 14 33 C11.49914724 31.84576027 9.3499173 30.5573905 7.0625 29 C2.44236176 25.98276686 -1.54989026 24.76048043 -7 24 C-6.39644592 20.14974121 -5.23227397 17.13898841 -3.4375 13.6875 C-2.98246094 12.80449219 -2.52742188 11.92148437 -2.05859375 11.01171875 C-1.70925781 10.34785156 -1.35992188 9.68398438 -1 9 C-1.99 8.67 -2.98 8.34 -4 8 C-2.87548273 5.0280615 -1.77706209 2.66559313 0 0 Z " fill="#2C2C2C" transform="translate(1606,34)"/>
<path d="M0 0 C6.27 0 12.54 0 19 0 C17 6 17 6 14 8 C14.3403125 8.41507813 14.680625 8.83015625 15.03125 9.2578125 C20.1251706 15.73359454 24.02196836 22.81127278 28 30 C27.63771166 19.28819165 27.63771166 19.28819165 25 9 C24.34 8.67 23.68 8.34 23 8 C24.44865567 4.61980343 26.08219573 2.26940332 29 0 C32.25 -0.25 32.25 -0.25 35 0 C34.52433594 1.76150391 34.52433594 1.76150391 34.0390625 3.55859375 C32.53552743 10.32450158 32.53832526 17.15860526 32.375 24.0625 C32.33673029 25.4186424 32.29767367 26.77476282 32.2578125 28.13085938 C32.16415893 31.42044104 32.0784314 34.71002612 32 38 C27.97625446 37.18045501 26.51989639 35.75157434 23.8125 32.625 C23.03003906 31.7278125 22.24757813 30.830625 21.44140625 29.90625 C18.27553737 26.13759968 15.18495314 22.31273677 12.140625 18.4453125 C9.95296595 15.94627132 7.65005407 13.99217351 5 12 C2.9600281 13.36323743 2.9600281 13.36323743 1 15 C1 15.66 1 16.32 1 17 C2.03125 17.495 3.0625 17.99 4.125 18.5 C9.02508976 21.28866897 13.05001074 25.78121286 14.6640625 31.25 C14.77492188 31.8275 14.88578125 32.405 15 33 C11.73869119 31.8789251 9.08373107 30.42126967 6.25 28.5 C2.03459413 25.77285765 -2.07974441 24.7630952 -7 24 C-4.87594923 18.5443163 -2.72823857 13.18365329 0 8 C-0.99 8 -1.98 8 -3 8 C-2.34099246 4.92463146 -1.46132217 2.92264434 0 0 Z " fill="#292929" transform="translate(1370,34)"/>
<path d="M0 0 C1.97119141 -0.34057617 1.97119141 -0.34057617 4.3515625 -0.29296875 C5.20234375 -0.28330078 6.053125 -0.27363281 6.9296875 -0.26367188 C7.81914063 -0.23853516 8.70859375 -0.21339844 9.625 -0.1875 C10.97078125 -0.16719727 10.97078125 -0.16719727 12.34375 -0.14648438 C14.56309789 -0.11106925 16.78125188 -0.06168461 19 0 C18.29822123 3.23486594 17.63523506 4.89181195 15 7 C14.34 7 13.68 7 13 7 C13.49628906 7.64324219 13.99257812 8.28648438 14.50390625 8.94921875 C19.80155763 15.99599981 24.00636616 23.15001349 28 31 C28.14631179 25.87908718 27.65304556 21.12683706 26.625 16.125 C26.49867187 15.44953125 26.37234375 14.7740625 26.2421875 14.078125 C25.89911304 12.36961419 25.457093 10.68159901 25 9 C24.34 8.67 23.68 8.34 23 8 C24.44518781 4.6278951 26.12350453 2.30119637 29 0 C31.75 -0.25 31.75 -0.25 34 0 C34.495 0.99 34.495 0.99 35 2 C34.69916504 2.88381348 34.39833008 3.76762695 34.08837891 4.67822266 C32.89587439 8.31779565 32.68394516 11.3261389 32.5859375 15.1484375 C32.56657135 15.80582916 32.5472052 16.46322083 32.5272522 17.14053345 C32.46797539 19.21856135 32.42128206 21.29664624 32.375 23.375 C32.33677222 24.7929915 32.29771777 26.21096097 32.2578125 27.62890625 C32.16231829 31.08573461 32.07809811 34.54272983 32 38 C27.65002579 37.16534834 25.64387058 34.85870744 22.8125 31.625 C22.09392822 30.82666748 22.09392822 30.82666748 21.36083984 30.01220703 C17.390343 25.56035814 13.68681705 20.92377141 10.0703125 16.1796875 C7.82814502 13.81906589 6.0808951 12.95539953 3 12 C2.01 13.32 1.02 14.64 0 16 C0.76183594 16.52787109 0.76183594 16.52787109 1.5390625 17.06640625 C11.31375786 24.07709599 11.31375786 24.07709599 14 29 C13.65234375 31.2109375 13.65234375 31.2109375 13 33 C12.31035156 32.51789063 11.62070313 32.03578125 10.91015625 31.5390625 C4.92007588 27.5128082 0.15187814 25.05519514 -7 24 C-6.40165275 19.85701333 -4.99335715 16.81805623 -2.9375 13.1875 C-2.11572266 11.72376953 -2.11572266 11.72376953 -1.27734375 10.23046875 C-0.85582031 9.49441406 -0.43429687 8.75835937 0 8 C-1.32 8 -2.64 8 -4 8 C-2.87548273 5.0280615 -1.77706209 2.66559313 0 0 Z " fill="#2A2A2A" transform="translate(1472,34)"/>
<path d="M0 0 C1.88138672 0.05414063 1.88138672 0.05414063 3.80078125 0.109375 C5.22970703 0.17898437 5.22970703 0.17898437 6.6875 0.25 C6.6875 1.24 6.6875 2.23 6.6875 3.25 C7.0175 4.24 7.3475 5.23 7.6875 6.25 C7.8203125 8.1875 7.8203125 8.1875 7.8125 10.25 C7.81636719 11.2709375 7.81636719 11.2709375 7.8203125 12.3125 C7.6875 14.25 7.6875 14.25 6.6875 17.25 C7.13480469 17.60191406 7.58210938 17.95382813 8.04296875 18.31640625 C12.43700528 21.90471327 15.56311833 25.51608837 18.6875 30.25 C18.54546663 27.87471849 18.39898388 25.49984749 18.25 23.125 C18.21068359 22.45984375 18.17136719 21.7946875 18.13085938 21.109375 C17.875348 17.09981183 17.41967587 13.20005804 16.6875 9.25 C15.6975 9.25 14.7075 9.25 13.6875 9.25 C14.02593807 6.20405733 14.92541285 4.95090955 16.875 2.5 C19.6875 0.25 19.6875 0.25 23 -0.0625 C23.886875 0.040625 24.77375 0.14375 25.6875 0.25 C25.21183594 2.01150391 25.21183594 2.01150391 24.7265625 3.80859375 C23.22302743 10.57450158 23.22582526 17.40860526 23.0625 24.3125 C23.02423029 25.6686424 22.98517367 27.02476282 22.9453125 28.38085938 C22.85165893 31.67044104 22.7659314 34.96002612 22.6875 38.25 C19.19652609 37.50036023 17.7748451 36.61226769 15.375 33.9375 C11.37616657 29.8200571 7.92940659 26.53996525 2.0234375 26.01171875 C-0.43676199 26.00132354 -2.85931304 26.07230437 -5.3125 26.25 C-5.1875 24.0625 -5.1875 24.0625 -4.3125 21.25 C-2.33293058 19.55911778 -0.33304804 17.89169528 1.6875 16.25 C2.63186349 14.08468832 2.63186349 14.08468832 2.6875 12.25 C0.10674598 9.66924598 -1.82217981 9.00947242 -5.375 8.9375 C-9.36379156 8.93237632 -9.36379156 8.93237632 -12.3125 11.25 C-12.168125 11.930625 -12.02375 12.61125 -11.875 13.3125 C-11.689375 14.281875 -11.50375 15.25125 -11.3125 16.25 C-11.044375 17.425625 -10.77625 18.60125 -10.5 19.8125 C-10.3125 23.25 -10.3125 23.25 -12.125 25.6875 C-14.3125 27.25 -14.3125 27.25 -16.3125 27.25 C-17.66955628 19.10766232 -18.53318571 13.2367044 -13.89453125 6.109375 C-9.57496779 1.03255474 -6.70347554 -0.25059722 0 0 Z " fill="#292929" transform="translate(91.3125,33.75)"/>
<path d="M0 0 C0.69738281 0.01353516 1.39476562 0.02707031 2.11328125 0.04101562 C3.82585541 0.0762055 5.53802941 0.13000845 7.25 0.1875 C7.229375 0.991875 7.20875 1.79625 7.1875 2.625 C6.95366379 5.12104885 6.95366379 5.12104885 8.25 6.1875 C8.7229064 13.39932266 8.7229064 13.39932266 6.75 16.6875 C6.255 17.1825 5.76 17.6775 5.25 18.1875 C5.971875 18.22875 6.69375 18.27 7.4375 18.3125 C13.07744196 20.06714861 16.17397028 26.40256488 19.25 31.1875 C19.70150149 23.66247509 18.38592361 16.40848946 16.25 9.1875 C15.59 8.8575 14.93 8.5275 14.25 8.1875 C15.69865567 4.80730343 17.33219573 2.45690332 20.25 0.1875 C23.5 -0.0625 23.5 -0.0625 26.25 0.1875 C25.72731534 2.95026177 25.14130413 5.5135876 24.25 8.1875 C24.09854901 10.4700699 24.00113021 12.75637706 23.93359375 15.04296875 C23.91281265 15.70460526 23.89203156 16.36624176 23.87062073 17.04792786 C23.80535273 19.15684852 23.74634656 21.26589135 23.6875 23.375 C23.64429311 24.80665315 23.60067812 26.23829404 23.55664062 27.66992188 C23.44969494 31.17565154 23.34836359 34.68151786 23.25 38.1875 C19.44003854 37.38881402 17.70188086 36.02035429 14.875 33.3125 C8.58442482 27.58541282 3.62596422 25.72728436 -4.75 25.1875 C-4.16333358 21.97416802 -4.00514506 21.37885879 -1.25 19.3125 C1.54278843 17.3564164 1.54278843 17.3564164 2.0625 13.9375 C2.1553125 12.57625 2.1553125 12.57625 2.25 11.1875 C-0.89611253 9.09009164 -1.66188078 8.93421781 -5.25 9 C-6.41015625 9.00966797 -6.41015625 9.00966797 -7.59375 9.01953125 C-9.93348849 9.1144435 -9.93348849 9.1144435 -12.75 10.1875 C-12.42 11.198125 -12.09 12.20875 -11.75 13.25 C-10.69818695 16.98053118 -10.37604941 20.29841385 -10.75 24.1875 C-12.125 26.125 -12.125 26.125 -13.75 27.1875 C-14.41 27.1875 -15.07 27.1875 -15.75 27.1875 C-17.17584819 18.81064188 -18.13672465 12.26758698 -13.234375 4.9140625 C-9.2211254 0.24601954 -6.0158069 -0.2217547 0 0 Z " fill="#282828" transform="translate(1436.75,33.8125)"/>
<path d="M0 0 C1.23327026 0.0314209 1.23327026 0.0314209 2.49145508 0.06347656 C3.38413086 0.07636719 4.27680664 0.08925781 5.1965332 0.10253906 C6.12530273 0.13605469 7.05407227 0.16957031 8.01098633 0.20410156 C8.95135742 0.22214844 9.89172852 0.24019531 10.8605957 0.25878906 C13.18258522 0.30593606 15.50252322 0.37171925 17.82348633 0.45410156 C17.2302788 3.68303799 16.99732515 4.31068453 14.32348633 6.51660156 C11.01560926 8.57198149 7.51468269 9.62198827 3.77661133 10.64550781 C1.4636909 11.39082099 1.4636909 11.39082099 -0.17651367 14.45410156 C0.63172852 14.56367187 1.4399707 14.67324219 2.27270508 14.78613281 C3.34133789 14.9446875 4.4099707 15.10324219 5.51098633 15.26660156 C7.09459961 15.49283203 7.09459961 15.49283203 8.71020508 15.72363281 C13.39284993 16.82232113 16.79961808 18.70320163 19.44848633 22.76660156 C27.18538709 36.20310007 27.02265032 56.30231786 26.82348633 71.45410156 C25.83348633 71.45410156 24.84348633 71.45410156 23.82348633 71.45410156 C23.72326172 70.66874023 23.62303711 69.88337891 23.51977539 69.07421875 C23.04999461 65.4491303 22.56184894 61.82673166 22.07348633 58.20410156 C21.9162207 56.96917969 21.75895508 55.73425781 21.59692383 54.46191406 C19.45090133 38.52331504 19.45090133 38.52331504 10.82348633 25.45410156 C7.06048259 24.19976698 3.55137724 24.34714734 -0.36401367 24.39160156 C-1.11360352 24.39611328 -1.86319336 24.400625 -2.63549805 24.40527344 C-4.4825375 24.41703802 -6.3295358 24.43497291 -8.17651367 24.45410156 C-7.5483487 20.50460453 -6.31196077 17.25518128 -4.61401367 13.64160156 C-4.15897461 12.66578125 -3.70393555 11.68996094 -3.23510742 10.68457031 C-2.88577148 9.94851562 -2.53643555 9.21246094 -2.17651367 8.45410156 C-3.49651367 8.45410156 -4.81651367 8.45410156 -6.17651367 8.45410156 C-5.474683 4.52384982 -4.22964712 0.88246143 0 0 Z " fill="#2C2C2C" transform="translate(1206.176513671875,33.5458984375)"/>
<path d="M0 0 C1.23327026 0.0314209 1.23327026 0.0314209 2.49145508 0.06347656 C3.38413086 0.07636719 4.27680664 0.08925781 5.1965332 0.10253906 C6.12530273 0.13605469 7.05407227 0.16957031 8.01098633 0.20410156 C8.95135742 0.22214844 9.89172852 0.24019531 10.8605957 0.25878906 C13.18258522 0.30593606 15.50252322 0.37171925 17.82348633 0.45410156 C17.2302788 3.68303799 16.99732515 4.31068453 14.32348633 6.51660156 C11.01560926 8.57198149 7.51468269 9.62198827 3.77661133 10.64550781 C1.4636909 11.39082099 1.4636909 11.39082099 -0.17651367 14.45410156 C0.63172852 14.56367187 1.4399707 14.67324219 2.27270508 14.78613281 C3.34133789 14.9446875 4.4099707 15.10324219 5.51098633 15.26660156 C7.09459961 15.49283203 7.09459961 15.49283203 8.71020508 15.72363281 C13.39284993 16.82232113 16.79961808 18.70320163 19.44848633 22.76660156 C27.18538709 36.20310007 27.02265032 56.30231786 26.82348633 71.45410156 C25.83348633 71.45410156 24.84348633 71.45410156 23.82348633 71.45410156 C23.72326172 70.66874023 23.62303711 69.88337891 23.51977539 69.07421875 C23.04999461 65.4491303 22.56184894 61.82673166 22.07348633 58.20410156 C21.9162207 56.96917969 21.75895508 55.73425781 21.59692383 54.46191406 C19.45090133 38.52331504 19.45090133 38.52331504 10.82348633 25.45410156 C7.06048259 24.19976698 3.55137724 24.34714734 -0.36401367 24.39160156 C-1.11360352 24.39611328 -1.86319336 24.400625 -2.63549805 24.40527344 C-4.4825375 24.41703802 -6.3295358 24.43497291 -8.17651367 24.45410156 C-7.5483487 20.50460453 -6.31196077 17.25518128 -4.61401367 13.64160156 C-4.15897461 12.66578125 -3.70393555 11.68996094 -3.23510742 10.68457031 C-2.88577148 9.94851562 -2.53643555 9.21246094 -2.17651367 8.45410156 C-3.49651367 8.45410156 -4.81651367 8.45410156 -6.17651367 8.45410156 C-5.474683 4.52384982 -4.22964712 0.88246143 0 0 Z " fill="#2C2C2C" transform="translate(1165.176513671875,33.5458984375)"/>
<path d="M0 0 C6.6 0 13.2 0 20 0 C19.67 1.65 19.34 3.3 19 5 C15.83606823 7.03395614 13.03063904 7.99260437 9.375 8.875 C5.47152969 10.17615677 4.22630399 11.61601793 2 15 C2.6290625 14.95359375 3.258125 14.9071875 3.90625 14.859375 C10.00154539 14.60234447 15.13451729 15.02687656 20 19 C23.33422459 23.26282172 24.98980695 27.40936197 26.1875 32.625 C26.35475586 33.33156738 26.52201172 34.03813477 26.69433594 34.76611328 C29.41294062 46.74479557 29.12212488 58.78751188 29 71 C28.34 71 27.68 71 27 71 C25.97461901 65.74039869 25.04994711 60.47978997 24.33984375 55.16796875 C22.47726376 38.75575022 22.47726376 38.75575022 14 25 C11.29283758 24.09761253 9.76223232 23.88148698 6.98828125 23.90234375 C6.23095703 23.90556641 5.47363281 23.90878906 4.69335938 23.91210938 C3.90767578 23.92048828 3.12199219 23.92886719 2.3125 23.9375 C1.51521484 23.94201172 0.71792969 23.94652344 -0.10351562 23.95117188 C-2.06904257 23.9629415 -4.03453085 23.98087652 -6 24 C-4 19 -2 14 0 9 C-0.99 8.67 -1.98 8.34 -3 8 C-2.34099246 4.92463146 -1.46132217 2.92264434 0 0 Z " fill="#2C2C2C" transform="translate(641,34)"/>
<path d="M0 0 C2.06298828 -0.34057617 2.06298828 -0.34057617 4.5703125 -0.29296875 C5.46621094 -0.28330078 6.36210937 -0.27363281 7.28515625 -0.26367188 C8.69087891 -0.2259668 8.69087891 -0.2259668 10.125 -0.1875 C11.06988281 -0.17396484 12.01476562 -0.16042969 12.98828125 -0.14648438 C15.32608779 -0.11106306 17.66276237 -0.06167271 20 0 C19.65625 2.3984375 19.65625 2.3984375 19 5 C14.97487494 7.61633129 10.54892901 8.81585083 5.953125 10.05859375 C3.47215843 11.25441964 2.97230675 12.48131178 2 15 C2.56847656 14.96519531 3.13695312 14.93039063 3.72265625 14.89453125 C10.66814334 14.65103337 15.49294893 15.66388423 20.75 20.5625 C26.46319348 28.22379879 26.89916961 38.84405497 28 48 C28.1134375 48.87785156 28.226875 49.75570312 28.34375 50.66015625 C29.13713023 57.43694576 29.09614411 64.18445055 29 71 C28.01 70.67 27.02 70.34 26 70 C25.93006836 69.34628418 25.86013672 68.69256836 25.78808594 68.01904297 C24.16663591 45.76000113 24.16663591 45.76000113 15 26 C10.83971533 23.44991307 6.4252716 23.76491773 1.6875 23.875 C0.57665039 23.88853516 0.57665039 23.88853516 -0.55664062 23.90234375 C-2.37123467 23.92575787 -4.18566071 23.96162385 -6 24 C-5.25 19.25 -5.25 19.25 -3 17 C-2.40165446 15.47943382 -1.86493344 13.93387912 -1.375 12.375 C-0.98441406 11.14910156 -0.98441406 11.14910156 -0.5859375 9.8984375 C-0.39257812 9.27195312 -0.19921875 8.64546875 0 8 C-1.32 8 -2.64 8 -4 8 C-2.87548273 5.0280615 -1.77706209 2.66559313 0 0 Z " fill="#2B2B2B" transform="translate(7,34)"/>
<path d="M0 0 C0.97904297 0.01804688 1.95808594 0.03609375 2.96679688 0.0546875 C5.37470771 0.10167113 7.78059335 0.16734306 10.1875 0.25 C9.6615625 1.673125 9.6615625 1.673125 9.125 3.125 C7.83723223 6.12060172 7.83723223 6.12060172 9.1875 8.25 C9.62893161 12.22288453 9.50780013 13.78956856 7.1875 17.125 C6.5275 17.82625 5.8675 18.5275 5.1875 19.25 C5.765 19.724375 6.3425 20.19875 6.9375 20.6875 C12.41931898 26.93068273 13.70357732 33.12178222 13.1875 41.25 C12.5275 41.25 11.8675 41.25 11.1875 41.25 C10.77757812 40.40695313 10.36765625 39.56390625 9.9453125 38.6953125 C9.40648437 37.59960938 8.86765625 36.50390625 8.3125 35.375 C7.51199219 33.73917969 7.51199219 33.73917969 6.6953125 32.0703125 C5.34214063 29.21117453 5.34214063 29.21117453 3.1875 27.25 C0.28866917 27.00660449 0.28866917 27.00660449 -2.9375 27.125 C-4.58105469 27.15207031 -4.58105469 27.15207031 -6.2578125 27.1796875 C-7.10085938 27.20289062 -7.94390625 27.22609375 -8.8125 27.25 C-8.09375 22.5234375 -8.09375 22.5234375 -5.5625 20.0625 C-3.01527045 18.38364416 -0.68933772 17.23634436 2.1875 16.25 C1.91715366 13.81282742 1.91715366 13.81282742 1.1875 11.25 C-2.27482494 8.94178337 -3.73048316 8.97999011 -7.8125 9 C-8.864375 8.99484375 -9.91625 8.9896875 -11 8.984375 C-14.01900379 9.04532983 -14.01900379 9.04532983 -16.8125 11.25 C-17.19274775 15.90145592 -17.19274775 15.90145592 -15.8125 20.25 C-15.5 23.1875 -15.5 23.1875 -15.8125 26.25 C-17.6875 28.125 -17.6875 28.125 -19.8125 29.25 C-20.4725 29.25 -21.1325 29.25 -21.8125 29.25 C-22.84560777 12.41416972 -22.84560777 12.41416972 -19.125 7.4375 C-17.61328125 5.79296875 -17.61328125 5.79296875 -15.8125 4.25 C-15.1421875 3.52941406 -14.471875 2.80882812 -13.78125 2.06640625 C-9.30153392 -0.67447267 -5.13800348 -0.1794333 0 0 Z " fill="#2A2A2A" transform="translate(1005.8125,33.75)"/>
<path d="M0 0 C3.2578125 -0.29296875 3.2578125 -0.29296875 7.125 -0.1875 C9.04699219 -0.14689453 9.04699219 -0.14689453 11.0078125 -0.10546875 C11.99523437 -0.07066406 12.98265625 -0.03585938 14 0 C13.25 4.75 13.25 4.75 11 7 C10.2575 7.226875 9.515 7.45375 8.75 7.6875 C4.37861916 9.77384086 1.1626687 13.6746626 -1 18 C-0.12988281 17.94779297 -0.12988281 17.94779297 0.7578125 17.89453125 C6.00266884 17.7127788 9.57238827 17.89125134 14 21 C16.80948077 23.88624254 19.43548071 26.89523933 22 30 C22.25515919 22.47280398 21.28297723 15.41148455 20 8 C19.01 7.67 18.02 7.34 17 7 C23.07439825 0.13785558 23.07439825 0.13785558 26.9375 -0.4375 C27.9584375 -0.2209375 27.9584375 -0.2209375 29 0 C28.54177532 3.46941546 28.10868317 6.67395049 27 10 C26.84970012 12.06362991 26.75155552 14.13123915 26.68359375 16.19921875 C26.62075195 18.01196289 26.62075195 18.01196289 26.55664062 19.86132812 C26.51732422 21.12396484 26.47800781 22.38660156 26.4375 23.6875 C26.37272461 25.59885742 26.37272461 25.59885742 26.30664062 27.54882812 C26.2004514 30.69910852 26.09840467 33.84946839 26 37 C22.72991569 36.27799504 21.11571208 35.45469274 18.6875 33.125 C10.86442531 26.28802716 4.11828019 26.62109076 -6 27 C-3.90387858 13.97807757 -3.90387858 13.97807757 -1 9 C-1.99 8.67 -2.98 8.34 -4 8 C-2.87548273 5.0280615 -1.77706209 2.66559313 0 0 Z " fill="#292929" transform="translate(42,34)"/>
<path d="M0 0 C1.39025391 0.02707031 1.39025391 0.02707031 2.80859375 0.0546875 C5.08181435 0.10155803 7.35285407 0.16714475 9.625 0.25 C9.45742187 1.33023438 9.28984375 2.41046875 9.1171875 3.5234375 C8.5242542 7.22320574 8.5242542 7.22320574 8.75 10.875 C8.61240103 14.59017211 7.78315952 16.28253066 5.625 19.25 C6.223125 19.889375 6.82125 20.52875 7.4375 21.1875 C11.91565735 27.4569203 13.03863647 33.66666479 12.625 41.25 C10.11649939 38.9755286 8.63329728 36.67644655 7.0625 33.6875 C5.70822518 31.11817488 4.6893321 29.3143321 2.625 27.25 C-0.27383083 27.00660449 -0.27383083 27.00660449 -3.5 27.125 C-5.14355469 27.15207031 -5.14355469 27.15207031 -6.8203125 27.1796875 C-7.66335937 27.20289062 -8.50640625 27.22609375 -9.375 27.25 C-8.6484375 22.515625 -8.6484375 22.515625 -6.1875 20.125 C-3.3408771 18.2272514 -0.47498585 16.69185388 2.625 15.25 C2.34882467 13.30925139 2.34882467 13.30925139 1.625 11.25 C-1.93276212 8.87815858 -3.65520607 8.95175606 -7.875 8.9375 C-9.0196875 8.92074219 -10.164375 8.90398438 -11.34375 8.88671875 C-14.29799167 9.04591666 -14.29799167 9.04591666 -16.3125 10.33203125 C-17.98655208 13.35394143 -17.29625244 15.87998049 -16.875 19.25 C-16.05726601 25.79187192 -16.05726601 25.79187192 -17.71875 28.1875 C-19.375 29.25 -19.375 29.25 -21.375 29.25 C-21.78183982 26.91067102 -22.11022856 24.6077266 -22.375 22.25 C-22.46652344 21.45464844 -22.55804688 20.65929687 -22.65234375 19.83984375 C-23.02727345 13.92327025 -21.98509749 10.65408947 -18.2734375 6.0390625 C-12.2500646 0.3627152 -7.97960371 -0.29596248 0 0 Z " fill="#292929" transform="translate(241.375,33.75)"/>
<path d="M0 0 C2.15478516 -0.34057617 2.15478516 -0.34057617 4.7890625 -0.29296875 C5.73007812 -0.28330078 6.67109375 -0.27363281 7.640625 -0.26367188 C9.11789062 -0.2259668 9.11789062 -0.2259668 10.625 -0.1875 C11.61757813 -0.17396484 12.61015625 -0.16042969 13.6328125 -0.14648438 C16.08908072 -0.11105743 18.54427285 -0.06166196 21 0 C20.72265625 1.90234375 20.72265625 1.90234375 20 4 C17.31229181 5.17881938 14.78304725 6.12341197 12 7 C6.16587777 8.75246016 6.16587777 8.75246016 2 13 C3.65 13.99 5.3 14.98 7 16 C7.928125 14.7934375 7.928125 14.7934375 8.875 13.5625 C11.6991189 10.15694485 12.34799301 10.07482047 16.8125 9.5625 C20.38288775 9.64068367 21.01183748 10.00893851 24.0625 12.3125 C26.6964221 16.11505648 26.47080682 19.7882216 25.8515625 24.23828125 C24.0699431 30.01628547 19.9115366 33.72564227 15 37 C14.01 37 13.02 37 12 37 C12 35 12 35 14.375 32.625 C15.24125 31.75875 16.1075 30.8925 17 30 C19.23889816 26.69495985 19.3359609 23.94754055 19 20 C18.34 19.01 17.68 18.02 17 17 C14.5 16.5 14.5 16.5 12 17 C11.34 17.99 10.68 18.98 10 20 C10.495 20.78375 10.99 21.5675 11.5 22.375 C13 25 13 25 13 27 C10.45317975 25.77752628 8.14523488 24.4575529 5.75 22.9375 C1.870096 20.67352131 -1.55165588 20.3121645 -6 20 C-5.54300722 14.97307937 -3.00758252 11.85103739 0 8 C-0.99 7.67 -1.98 7.34 -3 7 C-2.38722388 4.03824877 -1.74627478 2.61941217 0 0 Z " fill="#262626" transform="translate(688,66)"/>
<path d="M0 0 C2.06298828 -0.34057617 2.06298828 -0.34057617 4.5703125 -0.29296875 C5.46621094 -0.28330078 6.36210937 -0.27363281 7.28515625 -0.26367188 C8.69087891 -0.2259668 8.69087891 -0.2259668 10.125 -0.1875 C11.06988281 -0.17396484 12.01476562 -0.16042969 12.98828125 -0.14648438 C15.32608779 -0.11106306 17.66276237 -0.06167271 20 0 C19.27284911 3.25540506 18.73898844 4.95480819 16 7 C13.4765625 7.66796875 13.4765625 7.66796875 10.625 8.1875 C6.191298 9.26803135 4.21016644 10.26278951 1.8125 14.1875 C1.17329055 15.4410733 0.55578045 16.70727311 0 18 C0.66 17.67 1.32 17.34 2 17 C8.29113426 16.45766084 12.84572693 17.19591072 18 21 C22.2255954 25.40456179 29 33.7079042 29 40 C24.10208197 38.00916034 21.08836016 34.0908683 17.53515625 30.3125 C13.05364833 26.22459139 9.39788274 25.73652757 3.4375 25.8125 C2.32246094 25.81894531 1.20742188 25.82539062 0.05859375 25.83203125 C-2.47559459 25.97120124 -4.58691993 26.26250609 -7 27 C-6.34422814 22.97594538 -5.08843632 19.49944851 -3.5 15.75 C-3.0565625 14.69296875 -2.613125 13.6359375 -2.15625 12.546875 C-1 10 -1 10 0 9 C-1.32 8.67 -2.64 8.34 -4 8 C-2.87548273 5.0280615 -1.77706209 2.66559313 0 0 Z " fill="#2C2C2C" transform="translate(443,34)"/>
<path d="M0 0 C0.89267578 0.01804688 1.78535156 0.03609375 2.70507812 0.0546875 C4.90863504 0.10182241 7.11002601 0.16759343 9.3125 0.25 C8.5625 5 8.5625 5 6.3125 7.25 C4.69827758 7.5790314 3.0701017 7.84207455 1.4375 8.0625 C-2.22586471 8.73288518 -3.41341639 8.98962057 -6.1875 11.625 C-8.05062287 14.8801355 -8.05062287 14.8801355 -9.6875 18.25 C-9.0275 17.92 -8.3675 17.59 -7.6875 17.25 C-2.69797184 16.41665386 1.45131639 16.86363795 5.875 19.375 C11.89169729 23.77100242 15.27761384 30.59309712 18.3125 37.25 C18.3125 38.24 18.3125 39.23 18.3125 40.25 C14.97057501 38.83750883 13.23684625 37.20442366 11 34.375 C6.70950398 29.41749409 3.54180927 26.50494547 -3.1015625 25.98046875 C-10.48311906 25.85627211 -10.48311906 25.85627211 -17.6875 27.25 C-16.33224464 23.03224268 -14.78549886 18.95578678 -13.0625 14.875 C-12.61648438 13.81539062 -12.17046875 12.75578125 -11.7109375 11.6640625 C-11.37320312 10.86742187 -11.03546875 10.07078125 -10.6875 9.25 C-11.6775 8.92 -12.6675 8.59 -13.6875 8.25 C-12.15306194 -0.34285315 -7.70402414 -0.29305725 0 0 Z " fill="#2B2B2B" transform="translate(1581.6875,33.75)"/>
<path d="M0 0 C0.89267578 0.01804688 1.78535156 0.03609375 2.70507812 0.0546875 C4.90863504 0.10182241 7.11002601 0.16759343 9.3125 0.25 C8.5625 5 8.5625 5 6.3125 7.25 C4.69827758 7.5790314 3.0701017 7.84207455 1.4375 8.0625 C-2.22586471 8.73288518 -3.41341639 8.98962057 -6.1875 11.625 C-8.05062287 14.8801355 -8.05062287 14.8801355 -9.6875 18.25 C-9.0275 17.92 -8.3675 17.59 -7.6875 17.25 C-2.69797184 16.41665386 1.45131639 16.86363795 5.875 19.375 C11.89169729 23.77100242 15.27761384 30.59309712 18.3125 37.25 C18.3125 38.24 18.3125 39.23 18.3125 40.25 C14.97057501 38.83750883 13.23684625 37.20442366 11 34.375 C6.70950398 29.41749409 3.54180927 26.50494547 -3.1015625 25.98046875 C-10.48311906 25.85627211 -10.48311906 25.85627211 -17.6875 27.25 C-16.33224464 23.03224268 -14.78549886 18.95578678 -13.0625 14.875 C-12.61648438 13.81539062 -12.17046875 12.75578125 -11.7109375 11.6640625 C-11.37320313 10.86742187 -11.03546875 10.07078125 -10.6875 9.25 C-11.6775 8.92 -12.6675 8.59 -13.6875 8.25 C-12.15306194 -0.34285315 -7.70402414 -0.29305725 0 0 Z " fill="#2B2B2B" transform="translate(567.6875,33.75)"/>
<path d="M0 0 C1.97119141 -0.34057617 1.97119141 -0.34057617 4.3515625 -0.29296875 C5.20234375 -0.28330078 6.053125 -0.27363281 6.9296875 -0.26367188 C7.81914063 -0.23853516 8.70859375 -0.21339844 9.625 -0.1875 C10.97078125 -0.16719727 10.97078125 -0.16719727 12.34375 -0.14648438 C14.56309789 -0.11106925 16.78125188 -0.06168461 19 0 C18.25 4.75 18.25 4.75 16 7 C14.42225817 7.22985088 12.83718219 7.41099625 11.25 7.5625 C7.85057939 8.14877689 6.39084959 8.5823274 4.0078125 11.12890625 C2.540568 13.37189486 1.21004286 15.60942753 0 18 C0.66 17.67 1.32 17.34 2 17 C8.23698635 16.46232876 12.97145507 17.05762078 18 21 C22.38701116 26.12402903 28 33.05103699 28 40 C24.60322849 38.86774283 23.97769885 37.98607076 21.8125 35.25 C16.09334227 28.55426594 16.09334227 28.55426594 7.98339844 25.79833984 C2.97774261 25.58000118 -1.99873055 25.74425327 -7 26 C-5.06375702 19.79522136 -2.74390859 13.89174281 0 8 C-1.32 8 -2.64 8 -4 8 C-2.87548273 5.0280615 -1.77706209 2.66559313 0 0 Z " fill="#292929" transform="translate(1239,34)"/>
<path d="M0 0 C6.6 0 13.2 0 20 0 C20 1.32 20 2.64 20 4 C16.60470285 5.49393074 13.37391241 6.89002576 9.8125 7.9375 C6.6761212 9.12235421 5.27191654 10.59186577 3 13 C4.32064453 13.05607422 4.32064453 13.05607422 5.66796875 13.11328125 C6.82941406 13.17902344 7.99085938 13.24476562 9.1875 13.3125 C10.33605469 13.37050781 11.48460937 13.42851563 12.66796875 13.48828125 C17.28792674 14.19779414 19.92062598 15.92062598 23.1875 19.1875 C27.91702522 26.52641845 27.2312115 34.57362517 27 43 C26.34 43 25.68 43 25 43 C24.82984375 42.11957031 24.6596875 41.23914063 24.484375 40.33203125 C24.24203125 39.17058594 23.9996875 38.00914063 23.75 36.8125 C23.51796875 35.66394531 23.2859375 34.51539063 23.046875 33.33203125 C21.53271629 28.51271267 19.48903939 25.99485095 15.3046875 23.19921875 C11.10203499 21.67414272 7.54956095 21.66626451 3.125 21.8125 C2.34125 21.82603516 1.5575 21.83957031 0.75 21.85351562 C-1.16696782 21.88858211 -3.08357751 21.94237928 -5 22 C-3 17 -1 12 1 7 C-0.32 7 -1.64 7 -3 7 C-1.125 2.25 -1.125 2.25 0 0 Z " fill="#252525" transform="translate(144,66)"/>
<path d="M0 0 C-0.82993324 5.39456604 -4.82073367 7.90313359 -9 11 C-13.78668892 13.57062923 -18.45567036 14.60690278 -23.765625 15.47265625 C-26.26649201 15.92579114 -26.26649201 15.92579114 -29 18 C-29.57748803 19.96361864 -29.57748803 19.96361864 -29.6875 22.125 C-29.790625 23.40375 -29.89375 24.6825 -30 26 C-33.803146 25.43720261 -35.45881868 23.81085794 -38.125 21.125 C-42.69703796 16.88007957 -46.94415697 15.21369714 -53 14 C-51.25 8.25 -51.25 8.25 -49 6 C-46.3125 5.875 -46.3125 5.875 -43 7 C-39.47553399 10.28266272 -36.66480623 14.00279065 -34 18 C-33.68289063 17.46890625 -33.36578125 16.9378125 -33.0390625 16.390625 C-28.94256277 10.18929392 -24.99940004 8.11698475 -18 6 C-16.86820313 5.65195313 -15.73640625 5.30390625 -14.5703125 4.9453125 C-12.31361974 4.25674478 -10.05214121 3.58357351 -7.78515625 2.9296875 C-4.92898847 1.97629629 -2.98884693 0 0 0 Z " fill="#2C2C2C" transform="translate(1166,7)"/>
<path d="M0 0 C-6.59309772 8.7342645 -13.14118726 11.84418468 -23.8359375 13.5078125 C-26.27819577 13.92809223 -26.27819577 13.92809223 -29 16 C-29.57748803 17.96361864 -29.57748803 17.96361864 -29.6875 20.125 C-29.790625 21.40375 -29.89375 22.6825 -30 24 C-33.803146 23.43720261 -35.45881868 21.81085794 -38.125 19.125 C-42.69703796 14.88007957 -46.94415697 13.21369714 -53 12 C-51.87548273 9.0280615 -50.77706209 6.66559313 -49 4 C-45.64459241 4 -43.60480942 4.44152173 -41.11328125 6.7421875 C-38.516963 9.7140738 -36.18998558 12.71502163 -34 16 C-33.68289063 15.46890625 -33.36578125 14.9378125 -33.0390625 14.390625 C-27.28378542 5.6782166 -19.15758649 4.11776925 -9.4453125 1.7109375 C-6.98602235 1.08851067 -6.98602235 1.08851067 -4.8671875 -0.1484375 C-3 -1 -3 -1 0 0 Z " fill="#2A2A2A" transform="translate(1080,9)"/>
<path d="M0 0 C4.53828657 1.68866477 6.20536662 4.59090462 8.53125 8.6015625 C10.90554319 12.47873276 13.69173561 16.05113894 16.42578125 19.6796875 C18 22 18 22 18 24 C13.057555 23.51271669 10.3992936 19.54965746 7.2421875 16.125 C3.03278682 11.70276446 -1.20709735 8.84421575 -7.375 8.3125 C-9.169375 8.1578125 -9.169375 8.1578125 -11 8 C-8.27393696 11.28814599 -8.27393696 11.28814599 -4.25 12.25 C-3.13625 12.12625 -3.13625 12.12625 -2 12 C-2.54723683 15.37462715 -3.0549 17.08235 -5 20 C-7.8125 20.5 -7.8125 20.5 -11 20 C-13.9375 17.875 -13.9375 17.875 -16 15 C-16.10608346 10.01407717 -13.94187855 6.89366278 -11 3 C-10.5875 2.38125 -10.175 1.7625 -9.75 1.125 C-6.71834027 -0.82392411 -3.4334354 -0.47218169 0 0 Z " fill="#2B2B2B" transform="translate(1344,9)"/>
<path d="M0 0 C4.53828657 1.68866477 6.20536662 4.59090462 8.53125 8.6015625 C10.90554319 12.47873276 13.69173561 16.05113894 16.42578125 19.6796875 C18 22 18 22 18 24 C13.057555 23.51271669 10.3992936 19.54965746 7.2421875 16.125 C3.03278682 11.70276446 -1.20709735 8.84421575 -7.375 8.3125 C-9.169375 8.1578125 -9.169375 8.1578125 -11 8 C-8.27393696 11.28814599 -8.27393696 11.28814599 -4.25 12.25 C-3.13625 12.12625 -3.13625 12.12625 -2 12 C-2.75 17.75 -2.75 17.75 -5 20 C-8.21567216 20.34952958 -10.38358852 20.25954167 -13.375 19 C-15.46169617 16.43175857 -15.55608055 14.31741922 -15.39453125 11.0625 C-14.75979208 7.74425961 -13.1027562 5.58338619 -11 3 C-10.5875 2.38125 -10.175 1.7625 -9.75 1.125 C-6.71834027 -0.82392411 -3.4334354 -0.47218169 0 0 Z " fill="#2A2A2A" transform="translate(1000,9)"/>
<path d="M0 0 C4.53828657 1.68866477 6.20536662 4.59090462 8.53125 8.6015625 C10.90554319 12.47873276 13.69173561 16.05113894 16.42578125 19.6796875 C18 22 18 22 18 24 C13.057555 23.51271669 10.3992936 19.54965746 7.2421875 16.125 C3.03278682 11.70276446 -1.20709735 8.84421575 -7.375 8.3125 C-9.169375 8.1578125 -9.169375 8.1578125 -11 8 C-8.27393696 11.28814599 -8.27393696 11.28814599 -4.25 12.25 C-3.13625 12.12625 -3.13625 12.12625 -2 12 C-2.75 17.75 -2.75 17.75 -5 20 C-8.21567216 20.34952958 -10.38358852 20.25954167 -13.375 19 C-15.46169617 16.43175857 -15.55608055 14.31741922 -15.39453125 11.0625 C-14.75979208 7.74425961 -13.1027562 5.58338619 -11 3 C-10.5875 2.38125 -10.175 1.7625 -9.75 1.125 C-6.71834027 -0.82392411 -3.4334354 -0.47218169 0 0 Z " fill="#2A2A2A" transform="translate(611,9)"/>
<path d="M0 0 C3.92469335 0.14143039 6.14150335 0.66729238 9.1875 3.3125 C10.75671375 5.4018464 12.17039855 7.54640135 13.5625 9.7578125 C15.85264327 13.35818196 18.3677354 16.78905935 20.8671875 20.24609375 C22.1875 22.3125 22.1875 22.3125 22.1875 24.3125 C18.87699622 22.8874487 16.91710196 21.15019775 14.5 18.5 C9.07441793 12.94307237 3.10840768 8.92180059 -4.8125 8.3125 C-4.8125 9.3025 -4.8125 10.2925 -4.8125 11.3125 C-0.83495872 12.04584429 -0.83495872 12.04584429 3.1875 12.3125 C2.58892752 15.6645059 1.65956611 17.92567755 -0.8125 20.3125 C-4.13298116 20.80703975 -6.12362364 20.62068153 -9.1875 19.25 C-10.8125 17.3125 -10.8125 17.3125 -11.375 14.125 C-10.42498102 7.68598244 -6.92012036 0.56722298 0 0 Z " fill="#282828" transform="translate(1287.8125,8.6875)"/>
<path d="M0 0 C-0.66 22.44 -1.32 44.88 -2 68 C-2.99 67.67 -3.98 67.34 -5 67 C-5.01981934 66.16678223 -5.03963867 65.33356445 -5.06005859 64.47509766 C-5.42715825 49.6836181 -5.85417223 34.89167246 -6.8125 20.125 C-6.89927002 18.47878662 -6.89927002 18.47878662 -6.98779297 16.79931641 C-7.0601416 15.79562012 -7.13249023 14.79192383 -7.20703125 13.7578125 C-7.2635083 12.8827002 -7.31998535 12.00758789 -7.37817383 11.10595703 C-7.80525597 8.80801181 -7.80525597 8.80801181 -10.04956055 7.70263672 C-10.69320557 7.4707666 -11.33685059 7.23889648 -12 7 C-11.14836635 5.81616883 -10.26747562 4.6533531 -9.375 3.5 C-8.88773438 2.8503125 -8.40046875 2.200625 -7.8984375 1.53125 C-6 0 -6 0 0 0 Z " fill="#303030" transform="translate(1656,34)"/>
<path d="M0 0 C-0.66 22.44 -1.32 44.88 -2 68 C-2.99 67.67 -3.98 67.34 -5 67 C-5.01981934 66.16678223 -5.03963867 65.33356445 -5.06005859 64.47509766 C-5.42715825 49.6836181 -5.85417223 34.89167246 -6.8125 20.125 C-6.89927002 18.47878662 -6.89927002 18.47878662 -6.98779297 16.79931641 C-7.0601416 15.79562012 -7.13249023 14.79192383 -7.20703125 13.7578125 C-7.2635083 12.8827002 -7.31998535 12.00758789 -7.37817383 11.10595703 C-7.80525597 8.80801181 -7.80525597 8.80801181 -10.04956055 7.70263672 C-10.69320557 7.4707666 -11.33685059 7.23889648 -12 7 C-11.14836635 5.81616883 -10.26747562 4.6533531 -9.375 3.5 C-8.88773437 2.8503125 -8.40046875 2.200625 -7.8984375 1.53125 C-6 0 -6 0 0 0 Z " fill="#303030" transform="translate(489,34)"/>
<path d="M0 0 C-0.66 22.44 -1.32 44.88 -2 68 C-2.99 68 -3.98 68 -5 68 C-5.01981934 66.99437012 -5.03963867 65.98874023 -5.06005859 64.95263672 C-5.44086673 46.23568495 -5.86700228 27.61713542 -8 9 C-9.32 8.67 -10.64 8.34 -12 8 C-9.23610464 1.55091083 -7.21648261 0 0 0 Z " fill="#292929" transform="translate(865,34)"/>
<path d="M0 0 C8.42347822 1.10471846 13.41362214 4.81694059 20 10 C23.65966166 12.78904741 26.20605779 14.5639932 31 14 C31.6814823 12.10820797 31.6814823 12.10820797 32 10 C31.34 9.34 30.68 8.68 30 8 C28.0068433 7.97624074 28.0068433 7.97624074 25.875 8.375 C24.59625 8.58125 23.3175 8.7875 22 9 C23.23658059 5.57562298 24.35280441 2.55265289 27 0 C30.32048116 -0.49453975 32.31112364 -0.30818153 35.375 1.0625 C37 3 37 3 37.4375 6.3125 C36.80283536 11.66181623 35.10721944 15.21248 31.1875 18.875 C28 21 28 21 25.0625 21.6875 C18.99871948 20.32624315 15.41359288 15.55005897 11.5625 10.9375 C8.59402014 7.40905689 5.54202028 5.19927476 1.50390625 3.0078125 C1.00761719 2.67523438 0.51132813 2.34265625 0 2 C0 1.34 0 0.68 0 0 Z " fill="#272727" transform="translate(1527,72)"/>
<path d="M0 0 C1.97343652 5.0218344 2.4086274 9.55584032 2.625 14.875 C2.66367187 15.65875 2.70234375 16.4425 2.7421875 17.25 C2.83566622 19.16631367 2.91888495 21.08312319 3 23 C0.45823129 20.47094013 -2.05754881 17.93813503 -4.5 15.3125 C-8.89698328 11.24529047 -13.15094541 10.68812407 -19 10 C-18.72635589 6.80748543 -17.95306815 4.92457381 -16.25 2.1875 C-11.16793359 -1.23312162 -5.95108956 -0.39209228 0 0 Z " fill="#F7F7F7" transform="translate(971,42)"/>
<path d="M0 0 C2.94397288 7.7629761 3.34937193 14.74447081 3 23 C0.44751213 20.44751213 -2.10267616 17.89487917 -4.625 15.3125 C-7.94912548 12.07585151 -10.13338682 10.77100984 -14.6875 10.375 C-15.49574219 10.30023438 -16.30398438 10.22546875 -17.13671875 10.1484375 C-17.75160156 10.09945312 -18.36648438 10.05046875 -19 10 C-18.72635589 6.80748543 -17.95306815 4.92457381 -16.25 2.1875 C-11.16793359 -1.23312162 -5.95108956 -0.39209228 0 0 Z " fill="#F8F8F8" transform="translate(1102,42)"/>
<path d="M0 0 C1.88138672 0.05414063 1.88138672 0.05414063 3.80078125 0.109375 C5.22970703 0.17898437 5.22970703 0.17898437 6.6875 0.25 C7.19671328 2.43537367 7.69444437 4.62342431 8.1875 6.8125 C8.4659375 8.03066406 8.744375 9.24882813 9.03125 10.50390625 C9.67387554 14.17222707 9.80224823 17.53502603 9.6875 21.25 C9.25179688 20.86328125 8.81609375 20.4765625 8.3671875 20.078125 C1.37648018 13.96503894 -4.04891323 10.64136876 -13.3125 9.25 C-13.03280468 5.89365618 -12.51332876 4.46908592 -10.20703125 1.953125 C-6.5565002 -0.19482579 -4.20410581 -0.15716283 0 0 Z " fill="#F6F6F6" transform="translate(275.3125,41.75)"/>
<path d="M0 0 C3 2.0625 3 2.0625 5 5 C5.5 8.6875 5.5 8.6875 5 12 C1.24952518 14.50031654 -0.55856266 14.53603554 -5 14 C-9.27683127 10.71778065 -11.5212518 6.68207994 -14 2 C-9.03048293 0.01219317 -5.27662529 -0.5862917 0 0 Z " fill="#F7F7F7" transform="translate(1350,69)"/>
<path d="M0 0 C2.28612778 7.15775723 3.44032071 13.48193151 3 21 C2.278125 20.2575 1.55625 19.515 0.8125 18.75 C-4.0330869 14.01209281 -7.45641279 11.53966758 -14 10 C-11.00045925 3.05369511 -7.92450285 -0.73716306 0 0 Z " fill="#F3F3F3" transform="translate(795,42)"/>
<path d="M0 0 C0.886875 0.103125 1.77375 0.20625 2.6875 0.3125 C6.33861665 6.85408399 5.98637594 12.95129629 5.6875 20.3125 C4.98625 19.57 4.285 18.8275 3.5625 18.0625 C-0.65137792 14.03183417 -4.40583403 11.00740188 -10.3125 10.3125 C-8.60190472 4.86969683 -5.99830401 0.56587774 0 0 Z " fill="#F7F7F7" transform="translate(1550.3125,41.6875)"/>
<path d="M0 0 C0.75925781 0.20882812 1.51851562 0.41765625 2.30078125 0.6328125 C6.89303638 14.2660699 6.89303638 14.2660699 6.30078125 20.6328125 C4.13783844 18.46986969 2.04348164 16.33262962 0.05078125 14.0078125 C-3.50761927 10.93464842 -6.1192876 10.48669797 -10.69921875 9.6328125 C-9.26731279 4.62114164 -5.8080713 -0.79009942 0 0 Z " fill="#F3F3F3" transform="translate(822.69921875,42.3671875)"/>
<path d="M0 0 C1.2065625 0.0309375 1.2065625 0.0309375 2.4375 0.0625 C5.34367391 7.003585 6.9321164 12.51959983 6.4375 20.0625 C5.695 19.299375 4.9525 18.53625 4.1875 17.75 C-0.29483771 13.3695336 -3.40043126 11.60301718 -9.5625 10.0625 C-9.08977227 5.80795047 -6.59812624 3.87045427 -3.5625 1.0625 C-2.5625 0.0625 -2.5625 0.0625 0 0 Z " fill="#F3F3F3" transform="translate(309.5625,41.9375)"/>
<path d="M0 0 C3.09866202 6.62615673 4.47266289 11.67372525 4 19 C3.52949219 18.59007813 3.05898438 18.18015625 2.57421875 17.7578125 C1.95160156 17.21898438 1.32898438 16.68015625 0.6875 16.125 C-0.23482422 15.32449219 -0.23482422 15.32449219 -1.17578125 14.5078125 C-4.78259988 11.52658768 -7.41178221 10.61176237 -12 10 C-10.00218313 3.64330995 -6.89381466 -0.40415999 0 0 Z " fill="#F3F3F3" transform="translate(369,42)"/>
<path d="M0 0 C0.77040851 6.06696699 1.09706112 11.88514973 1 18 C0.45730469 17.59007813 -0.08539062 17.18015625 -0.64453125 16.7578125 C-1.35996094 16.21898438 -2.07539062 15.68015625 -2.8125 15.125 C-3.52019531 14.59132813 -4.22789063 14.05765625 -4.95703125 13.5078125 C-8.74943918 10.70882692 -11.33660145 9.62178647 -16 9 C-16 8.34 -16 7.68 -16 7 C-13.71070947 5.82845707 -11.41881638 4.66261926 -9.125 3.5 C-8.47402344 3.16613281 -7.82304688 2.83226562 -7.15234375 2.48828125 C-2.2265625 0 -2.2265625 0 0 0 Z " fill="#EDEDED" transform="translate(1055,52)"/>
<path d="M0 0 C0.69802734 -0.00386719 1.39605469 -0.00773437 2.11523438 -0.01171875 C7.31086006 -0.00163994 7.31086006 -0.00163994 8.4375 1.125 C8.47830783 3.12458364 8.48004356 5.12545254 8.4375 7.125 C2.9183841 9.07968688 -0.80385404 9.37270662 -6.5625 8.125 C-8.5625 6.8125 -8.5625 6.8125 -9.5625 5.125 C-9.5625 3.805 -9.5625 2.485 -9.5625 1.125 C-6.51267742 -0.39991129 -3.34127461 -0.01861434 0 0 Z " fill="#F0F0F0" transform="translate(1045.5625,41.875)"/>
<path d="M0 0 C3.625 0.1875 3.625 0.1875 6.625 2.1875 C6.25 5.125 6.25 5.125 5.625 8.1875 C2.82629973 9.58685013 0.72001208 9.44015405 -2.375 9.1875 C-4.3125 8 -4.3125 8 -5.375 6.1875 C-4.81117021 0.26728723 -4.81117021 0.26728723 0 0 Z " fill="#F2F2F2" transform="translate(527.375,55.8125)"/>
<path d="M0 0 C1.45792884 -0.05399736 2.91642712 -0.09279177 4.375 -0.125 C5.18710938 -0.14820313 5.99921875 -0.17140625 6.8359375 -0.1953125 C9 0 9 0 11 2 C10.67028521 5.29714793 10.3773161 6.6226839 8 9 C5.0625 9.375 5.0625 9.375 2 9 C0.0625 7.3125 0.0625 7.3125 -1 5 C-0.6875 2.25 -0.6875 2.25 0 0 Z " fill="#F7F7F7" transform="translate(1277,55)"/>
<path d="M0 0 C1.91015625 0.23046875 1.91015625 0.23046875 3.91015625 2.23046875 C4.16015625 4.73046875 4.16015625 4.73046875 3.91015625 7.23046875 C1.91015625 9.23046875 1.91015625 9.23046875 -1.02734375 9.54296875 C-4.08984375 9.23046875 -4.08984375 9.23046875 -5.96484375 8.04296875 C-7.45350691 5.644567 -7.38162683 4.00240804 -7.08984375 1.23046875 C-5.19495423 -0.66442077 -2.51845229 0.05027763 0 0 Z " fill="#F7F7F7" transform="translate(731.08984375,55.76953125)"/>
<path d="M0 0 C1.91015625 0.23046875 1.91015625 0.23046875 3.91015625 2.23046875 C4.16015625 4.73046875 4.16015625 4.73046875 3.91015625 7.23046875 C1.91015625 9.23046875 1.91015625 9.23046875 -1.02734375 9.54296875 C-4.08984375 9.23046875 -4.08984375 9.23046875 -5.96484375 8.04296875 C-7.45350691 5.644567 -7.38162683 4.00240804 -7.08984375 1.23046875 C-5.19495423 -0.66442077 -2.51845229 0.05027763 0 0 Z " fill="#F7F7F7" transform="translate(187.08984375,55.76953125)"/>
<path d="M0 0 C0.268125 0.5775 0.53625 1.155 0.8125 1.75 C1.94184834 4.05396098 1.94184834 4.05396098 3.625 6.0625 C5 8 5 8 5 11 C1.7 11 -1.6 11 -5 11 C-5 8.69 -5 6.38 -5 4 C-4.360625 3.71125 -3.72125 3.4225 -3.0625 3.125 C-0.84793921 2.17176549 -0.84793921 2.17176549 0 0 Z " fill="#F6F6F6" transform="translate(1350,37)"/>
<path d="M0 0 C2.64 0 5.28 0 8 0 C7.52651586 4.1666604 6.95303159 6.92884715 4 10 C2 10 2 10 -0.125 8 C-0.74375 7.34 -1.3625 6.68 -2 6 C-1.34 4.02 -0.68 2.04 0 0 Z " fill="#363636" transform="translate(1411,34)"/>
<path d="M0 0 C2.64 0 5.28 0 8 0 C7.52651586 4.1666604 6.95303159 6.92884715 4 10 C2 10 2 10 -0.125 8 C-0.74375 7.34 -1.3625 6.68 -2 6 C-1.34 4.02 -0.68 2.04 0 0 Z " fill="#363636" transform="translate(1068,34)"/>
<path d="M0 0 C2.64 0 5.28 0 8 0 C7.52651586 4.1666604 6.95303159 6.92884715 4 10 C2 10 2 10 -0.125 8 C-0.74375 7.34 -1.3625 6.68 -2 6 C-1.34 4.02 -0.68 2.04 0 0 Z " fill="#363636" transform="translate(667,34)"/>
<path d="M0 0 C2.64 0 5.28 0 8 0 C7.52651586 4.1666604 6.95303159 6.92884715 4 10 C2 10 2 10 -0.125 8 C-0.74375 7.34 -1.3625 6.68 -2 6 C-1.34 4.02 -0.68 2.04 0 0 Z " fill="#363636" transform="translate(582,34)"/>
<path d="M0 0 C2.64 0 5.28 0 8 0 C7.52651586 4.1666604 6.95303159 6.92884715 4 10 C2 10 2 10 -0.125 8 C-0.74375 7.34 -1.3625 6.68 -2 6 C-1.34 4.02 -0.68 2.04 0 0 Z " fill="#363636" transform="translate(123,34)"/>
<path d="M0 0 C2.64 0 5.28 0 8 0 C7.56802365 4.7517398 6.67230705 6.92000054 3 10 C0.9375 8.375 0.9375 8.375 -1 6 C-0.75 2.75 -0.75 2.75 0 0 Z " fill="#303030" transform="translate(1263,34)"/>
<path d="M0 0 C1.134375 0.020625 2.26875 0.04125 3.4375 0.0625 C2.6875 6.6875 2.6875 6.6875 0.4375 10.0625 C-2.57782925 9.05739025 -3.74932851 8.60094009 -5.5625 6.0625 C-4.99346234 0.0876046 -4.99346234 0.0876046 0 0 Z " fill="#2E2E2E" transform="translate(1322.5625,33.9375)"/>
<path d="M0 0 C1.134375 0.020625 2.26875 0.04125 3.4375 0.0625 C2.6875 6.6875 2.6875 6.6875 0.4375 10.0625 C-2.57782925 9.05739025 -3.74932851 8.60094009 -5.5625 6.0625 C-4.99346234 0.0876046 -4.99346234 0.0876046 0 0 Z " fill="#2E2E2E" transform="translate(1192.5625,33.9375)"/>
<path d="M0 0 C1.134375 0.020625 2.26875 0.04125 3.4375 0.0625 C2.6875 6.6875 2.6875 6.6875 0.4375 10.0625 C-2.57782925 9.05739025 -3.74932851 8.60094009 -5.5625 6.0625 C-4.99346234 0.0876046 -4.99346234 0.0876046 0 0 Z " fill="#2E2E2E" transform="translate(1024.5625,33.9375)"/>
<path d="M0 0 C1.134375 0.020625 2.26875 0.04125 3.4375 0.0625 C2.6875 6.6875 2.6875 6.6875 0.4375 10.0625 C-2.57782925 9.05739025 -3.74932851 8.60094009 -5.5625 6.0625 C-4.99346234 0.0876046 -4.99346234 0.0876046 0 0 Z " fill="#2E2E2E" transform="translate(940.5625,33.9375)"/>
<path d="M0 0 C1.134375 0.020625 2.26875 0.04125 3.4375 0.0625 C2.6875 6.6875 2.6875 6.6875 0.4375 10.0625 C-2.57782925 9.05739025 -3.74932851 8.60094009 -5.5625 6.0625 C-4.99346234 0.0876046 -4.99346234 0.0876046 0 0 Z " fill="#2E2E2E" transform="translate(471.5625,33.9375)"/>
<path d="M0 0 C1.134375 0.020625 2.26875 0.04125 3.4375 0.0625 C2.6875 6.6875 2.6875 6.6875 0.4375 10.0625 C-2.57782925 9.05739025 -3.74932851 8.60094009 -5.5625 6.0625 C-4.99346234 0.0876046 -4.99346234 0.0876046 0 0 Z " fill="#2E2E2E" transform="translate(346.5625,33.9375)"/>
<path d="M0 0 C2.31 0 4.62 0 7 0 C6.25 6.625 6.25 6.625 4 10 C2 10 2 10 -0.125 8 C-0.74375 7.34 -1.3625 6.68 -2 6 C-1.34 4.02 -0.68 2.04 0 0 Z " fill="#2D2D2D" transform="translate(1513,34)"/>
<path d="M0 0 C2.31 0 4.62 0 7 0 C6.25 6.625 6.25 6.625 4 10 C2 10 2 10 -0.125 8 C-0.74375 7.34 -1.3625 6.68 -2 6 C-1.34 4.02 -0.68 2.04 0 0 Z " fill="#2D2D2D" transform="translate(754,34)"/>
<path d="M0 0 C2.31 0 4.62 0 7 0 C6.25 6.625 6.25 6.625 4 10 C2 10 2 10 -0.125 8 C-0.74375 7.34 -1.3625 6.68 -2 6 C-1.34 4.02 -0.68 2.04 0 0 Z " fill="#2D2D2D" transform="translate(210,34)"/>
<path d="M0 0 C5.43806647 -0.36253776 5.43806647 -0.36253776 7.9375 1.25 C9 3 9 3 8.6875 5.1875 C8.3471875 6.0846875 8.3471875 6.0846875 8 7 C5.75 7.75 5.75 7.75 3 8 C0.625 6.3125 0.625 6.3125 -1 4 C-0.75 1.75 -0.75 1.75 0 0 Z " fill="#F1F1F1" transform="translate(909,53)"/>
<path d="M0 0 C5.43806647 -0.36253776 5.43806647 -0.36253776 7.9375 1.25 C9 3 9 3 8.6875 5.1875 C8.3471875 6.0846875 8.3471875 6.0846875 8 7 C5.75 7.75 5.75 7.75 3 8 C0.625 6.3125 0.625 6.3125 -1 4 C-0.75 1.75 -0.75 1.75 0 0 Z " fill="#F3F3F3" transform="translate(412,53)"/>
</svg>
