<svg width="152" height="32" viewBox="0 0 152 32" fill="none" xmlns="http://www.w3.org/2000/svg">
<path d="M45.7715 19.8242C46.1051 25.128 44.4633 27.6335 40 29.8701C38.2 30.7701 36.61 31.7704 34.79 30.1904C32.8001 28.4504 32.1296 25.5302 33.0996 22.9502C34.2495 23.6401 33.4206 24.8102 33.7803 25.6602C34.5802 27.5201 34.9301 30.5606 37.5898 29.751C40.1898 28.951 43.3098 27.9506 44.1699 24.5107C44.5284 23.0669 45.1247 21.6921 45.7715 19.8242ZM62.666 24.1406C62.3204 26.7156 60.775 27.8114 58.8203 28.2402C57.1604 28.6102 55.7107 27.8896 54.7207 26.4297C54.4608 26.0298 54.0106 25.6401 54.3301 25.1104C54.6301 24.6204 55.2506 24.48 55.6406 24.75C58.0657 26.4365 60.3607 26.0606 62.666 24.1406ZM50.5605 0.0107422C52.9703 -0.129087 54.8403 1.13076 55.7803 3.39062C56.8002 5.84053 57.0603 8.79053 55.6904 10.9404C54.0604 13.5104 53.4805 16.4806 55.3105 18.6406C56.2503 19.7702 56.9502 19.8603 58.8896 18.8906C56.0799 18.6105 54.6304 17.3101 55.1504 14.4502C55.2404 13.9203 55.6105 13.4002 55.9805 12.9902C56.0514 12.9011 56.6698 13.2005 56.9297 13.4502C57.4196 13.9101 57.5102 14.6902 57.0205 15.0303C55.7305 15.8903 56.1199 16.7307 57.0898 17.2207C58.2798 17.8207 59.0105 16.66 58.9805 15.75C58.9605 15.2105 58.9903 14.9609 59.1201 14.8408C59.4001 14.5708 59.8901 14.6304 60.0801 14.6504C62.5202 14.9934 69.1474 15.9575 72.3105 15.9961L72.3301 15.8105V15.9961C72.3879 15.9967 72.4446 16 72.5 16C72.8926 16 73.4506 16.0103 74 16.0068V16H152V17H74.5L74.1045 17.0879C73.647 17.2001 73.0376 17.3725 72.5801 17.5C72.5801 17.5 72.4854 17.5266 72.3301 17.5713V17.5801C72.3207 17.5801 72.3111 17.5792 72.3018 17.5791C72.0454 17.653 71.6433 17.7726 71.2305 17.9102C65.8605 19.7102 63.1802 20.6008 61.1602 22.5508C60.4603 23.2207 59.7201 24.0901 58.5303 24.2002C57.8904 24.2602 57.1802 24.0906 56.4004 23.5908C53.7404 21.9108 52.7403 19.7104 52.7803 16.4404C52.8103 14.0205 53.3398 11.5207 52.04 9.09082C50.89 6.91082 50.1597 6.59074 48.6797 8.51074C48.0699 9.29086 47.7298 10.8301 46.4102 9.77051C45.2102 8.79054 45.9703 7.63052 46.5303 6.56055C47.4403 4.84055 48.9504 4.55012 50.6104 4.37012C52.9602 4.10028 53.9405 5.83074 54.9404 7.68066C55.3404 4.74079 54.6403 2.6801 51.8506 1.79004C47.3306 0.340055 45.1806 3.26049 43.3506 6.94043C43.6406 1.97043 47.2705 0.200742 50.5605 0.0107422ZM62.6807 24.1299C62.6761 24.1337 62.6706 24.1368 62.666 24.1406C62.6669 24.1337 62.669 24.127 62.6699 24.1201L62.6807 24.1299ZM34.4404 16.1201C36.0703 14.9204 38.3399 15.5603 39.04 17.21C39.78 18.93 38.6102 20.0106 37.2402 21.1406C39.4501 21.5306 39.6802 19.3903 41.3799 18.6602C40.4699 21.2 39.1902 23.4104 37.0703 22.2207C34.5403 20.8107 35.92 23.2098 35.1201 23.6299C34.6899 22.0402 32.4703 22.0096 32.2803 20.5098C32.0403 18.7103 31.5401 19.07 30.2402 19.5C27.7702 20.32 26.7407 19.09 27.4707 15.79C28.6307 19.26 29.0904 19.4404 31.6904 17.8604C32.6204 17.2904 33.5605 16.7801 34.4404 16.1201ZM37.3604 17.5C35.2104 16.58 34.2599 18.2004 33.4199 19.6104C33.0202 20.2603 33.6504 20.8706 34.5303 20.8906C35.3803 20.9106 36.2405 20.9899 35.7305 19.6699C35.0606 17.9501 36.2004 17.79 37.3604 17.5ZM45.7715 19.8242C45.771 19.8164 45.771 19.8086 45.7705 19.8008H45.7803C45.7775 19.8087 45.7742 19.8163 45.7715 19.8242ZM34.0801 11.3809C35.88 9.19099 38.4598 8.87088 39.6299 10.7705C40.3799 11.9905 40.7906 13.421 41.3506 14.751L41.3604 14.7607C41.1604 14.8907 40.95 15.0311 40.75 15.1611C40.09 14.3411 39.28 13.5907 38.79 12.6807C37.7101 10.6708 36.6399 10.9008 35.46 12.5107C35.1101 12.9906 34.9003 13.5705 34.5605 14.0703C32.7705 16.7103 29.8098 16.5406 28.3398 13.6406C28.0699 13.1108 27.9098 12.7505 27.3398 12.9404C26.6998 13.1504 25.5301 13.5211 25.8301 14.0811C26.7699 15.8409 25.1903 15.5312 24.5703 15.7012C23.0104 16.1411 21.4205 15.9704 19.8105 15.6904C17.4507 15.2705 15.0705 14.951 12.6807 14.751C12.0207 14.701 11.0406 15.7406 10.8906 14.3506C10.7907 13.4408 11.72 13.111 12.6299 13.1709C13.3299 13.2209 14.0305 13.3105 14.7305 13.3105C18.7904 13.2806 22.9308 14.0411 26.7207 11.7012C27.6007 11.1512 28.7305 10.9412 29.9004 11.4111C31.4899 12.0412 29.8202 13.681 30.9199 14.4609C32.5599 13.991 33.1501 12.5108 34.0801 11.3809ZM46.7705 10.3008C46.6607 14.6504 51.07 12.9406 52.1201 15.3604L52.1104 15.3506C49.6504 16.9706 47.7599 13.871 45.3799 14.501C45.12 14.5702 44.8704 13.68 45.1104 13.2002C45.5303 12.3703 46.0306 11.5806 46.7705 10.3008ZM0 14.0303C2.61998 13.0503 5.13045 12.97 7.69043 13.54C5.22043 14.14 2.84 16.0803 0 14.0303ZM42.8008 9.41016C44.0802 9.48058 43.4706 11.5609 43.3906 12.7607C43.3505 13.5106 42.9799 14.2502 42.1201 14.6201C41.6703 13.7102 42.0906 12.8403 42.3506 12.0703C42.6706 11.1203 41.1308 9.32016 42.8008 9.41016Z" fill="black"/>
</svg>
