<?xml version="1.0" encoding="UTF-8"?>
<svg version="1.1" xmlns="http://www.w3.org/2000/svg" width="185" height="174">
<path d="M0 0 C1.16740723 0.01244751 1.16740723 0.01244751 2.35839844 0.02514648 C18.16974537 0.47575384 34.82729911 5.8871154 46.40234375 17.0078125 C48.97482785 19.98748683 51.21110943 23.08977667 53.375 26.375 C53.74471924 26.93582275 54.11443848 27.49664551 54.49536133 28.07446289 C59.30856454 35.81175083 60.94268941 43.93639356 62.0625 52.875 C62.28524692 54.64551984 62.51535737 56.41513365 62.75390625 58.18359375 C62.85002197 58.95372803 62.9461377 59.7238623 63.04516602 60.51733398 C63.37610038 62.66365576 63.37610038 62.66365576 65.5 64.4375 C65.36546607 68.13718311 65.24028572 70.56012434 62.8125 73.4375 C59.60029355 74.82656225 57.8063364 74.49271374 54.5 73.4375 C52.5625 71.8125 52.5625 71.8125 51.5 69.4375 C51.93636364 63.00113636 51.93636364 63.00113636 53.5 61.4375 C53.60459701 46.77299978 49.67669884 33.76215902 39.9140625 22.62890625 C26.77030834 10.28660052 9.50408319 8.94850354 -7.5 8.4375 C-7.17 9.675 -6.84 10.9125 -6.5 12.1875 C-5.70108841 15.18341845 -5.5 17.23857719 -5.5 20.4375 C-4.4378125 20.40269531 -3.375625 20.36789063 -2.28125 20.33203125 C10.40094086 20.03050294 16.67556786 21.2917865 26.30078125 30.0859375 C31.5 35.64531528 31.5 35.64531528 31.5 39.4375 C29.40605842 40.70882167 27.97289462 41.4375 25.5 41.4375 C22.47511024 39.92505512 21.35680351 37.22270527 19.5 34.4375 C11.86670945 28.46362044 4.89678455 27.92796439 -4.5 28.4375 C-6.83677593 28.74577558 -9.17130281 29.07318567 -11.5 29.4375 C-15.90774487 11.58100797 -15.90774487 11.58100797 -16.5 3.4375 C-10.79323381 1.01469498 -6.18441401 -0.08676763 0 0 Z " fill="#294245" transform="translate(93.5,31.5625)"/>
<path d="M0 0 C3.83084349 2.61193874 6.65161815 5.67823629 8.75 9.875 C9.55980094 16.39323377 8.67286213 20.61010608 4.75 25.875 C-0.27564103 29.875 -0.27564103 29.875 -4.25 29.875 C-4.24214478 30.7568396 -4.24214478 30.7568396 -4.23413086 31.65649414 C-4.14330912 43.44607607 -4.22501978 55.12433388 -5.25 66.875 C9.37609043 66.45349883 19.28306482 63.34193518 29.75 52.875 C33.10124691 53.19931422 34.50068011 54.49751373 36.75 56.875 C27.61975619 66.15250581 16.78567387 73.66710678 3.39453125 74.04296875 C1.78388476 74.05484084 0.17318973 74.06121453 -1.4375 74.0625 C-2.25669922 74.07474609 -3.07589844 74.08699219 -3.91992188 74.09960938 C-6.03126936 74.10482258 -8.14221809 73.99776321 -10.25 73.875 C-12.25 71.875 -12.25 71.875 -12.49291992 69.73046875 C-12.48675659 68.40982422 -12.48675659 68.40982422 -12.48046875 67.0625 C-12.47917969 66.07701172 -12.47789063 65.09152344 -12.4765625 64.07617188 C-12.45722656 62.4915918 -12.45722656 62.4915918 -12.4375 60.875 C-12.43105469 59.80314453 -12.42460938 58.73128906 -12.41796875 57.62695312 C-12.32972573 48.35592097 -11.90382031 39.12188725 -11.25 29.875 C-12.00796875 29.77960938 -12.7659375 29.68421875 -13.546875 29.5859375 C-16.63850099 28.77282199 -17.53179128 27.9550814 -19.5 25.5 C-20.00015625 24.89414063 -20.5003125 24.28828125 -21.015625 23.6640625 C-24.03626477 19.28604663 -24.18272604 13.96738328 -23.25 8.875 C-17.80533774 -0.17450733 -10.05656851 -3.48111987 0 0 Z " fill="#5FC092" transform="translate(101.25,70.125)"/>
<path d="M0 0 C1.98 1.32 3.96 2.64 6 4 C5.566875 5.051875 5.566875 5.051875 5.125 6.125 C4.75375 7.07375 4.3825 8.0225 4 9 C3.62875 9.94875 3.2575 10.8975 2.875 11.875 C1.05292178 18.38242221 1.99000336 23.46229359 4.59375 29.5625 C7.67352302 34.90077324 12.4774316 38.43595039 18 41 C15.76030402 47.01701237 12.38201031 52.27901739 9.0625 57.75 C8.42892578 58.81605469 7.79535156 59.88210937 7.14257812 60.98046875 C6.52962891 61.99238281 5.91667969 63.00429687 5.28515625 64.046875 C4.44803101 65.43664551 4.44803101 65.43664551 3.59399414 66.85449219 C2 69 2 69 -1 70 C-14.37028764 62.89411286 -24.0334944 50.15187078 -29 36 C-30.22253979 31.12658795 -30.35148858 26.17072462 -30.60546875 21.17578125 C-30.51659156 17.79809419 -30.51659156 17.79809419 -32 15 C-32.45681382 8.83301344 -32.45681382 8.83301344 -30.9375 6.0625 C-27.88023824 4.3859371 -25.4093712 4.63471023 -22 5 C-20.0625 6.0625 -20.0625 6.0625 -19 8 C-18.6875 11.5625 -18.6875 11.5625 -19 15 C-19.66 15.66 -20.32 16.32 -21 17 C-22.57471373 28.88494471 -19.70031881 39.46784928 -12.5 49 C-11.35480895 50.35182334 -10.18986537 51.68732742 -9 53 C-8.52046875 53.54785156 -8.0409375 54.09570312 -7.546875 54.66015625 C-6.15523549 56.21809458 -6.15523549 56.21809458 -4 58 C-3.01 58 -2.02 58 -1 58 C0.90206853 55.4179588 0.90206853 55.4179588 2.625 52.1875 C3.23601562 51.10855469 3.84703125 50.02960938 4.4765625 48.91796875 C6.07043319 46.05326191 6.07043319 46.05326191 7 43 C6.41476563 42.75765625 5.82953125 42.5153125 5.2265625 42.265625 C2.58816166 40.76590242 1.22570598 39.14694959 -0.625 36.75 C-1.21539062 36.00234375 -1.80578125 35.2546875 -2.4140625 34.484375 C-7.00001313 27.30047204 -6.86754158 19.25015034 -6 11 C-4.65097423 7.06938536 -2.98975583 2.98975583 0 0 Z " fill="#284144" transform="translate(65,67)"/>
<path d="M0 0 C9.37641729 3.67454191 15.33669969 17.40759145 19.3359375 26.0859375 C26.33567172 42.13959151 26.75691253 63.55213378 20.75732422 80.10839844 C13.10694981 99.21707056 -1.4578465 114.13053784 -19.2109375 124.26171875 C-21 125 -21 125 -24 125 C-24.99 122.03 -24.99 122.03 -26 119 C-25.17757812 118.52691406 -24.35515625 118.05382812 -23.5078125 117.56640625 C-15.896731 113.05776328 -9.29064507 108.29064507 -3 102 C-2.27941406 101.27941406 -1.55882812 100.55882812 -0.81640625 99.81640625 C13.88064564 84.23030774 16.67134841 66.21191212 16.12744141 45.68359375 C15.47426125 31.92927128 8.5013414 19.27759947 -0.30078125 8.98828125 C-2 7 -2 7 -4 4 C-2.68 2.68 -1.36 1.36 0 0 Z " fill="#5EC091" transform="translate(153,34)"/>
<path d="M0 0 C3.16115776 1.36983503 3.9927092 1.9890638 6 5 C5.32904297 5.78310547 5.32904297 5.78310547 4.64453125 6.58203125 C-8.86114658 23.02497803 -10.77742922 41.49978957 -10 62 C-9.195625 62.309375 -8.39125 62.61875 -7.5625 62.9375 C-5 64 -5 64 -4 65 C-3.625 67.8125 -3.625 67.8125 -4 71 C-6.125 73.4375 -6.125 73.4375 -9 75 C-12.1875 74.9375 -12.1875 74.9375 -15 74 C-18.37144179 68.94283731 -17.75294304 62.94381477 -18 57 C-18.06574219 55.71867187 -18.13148437 54.43734375 -18.19921875 53.1171875 C-18.59382814 39.42832368 -15.8537864 27.31328646 -10.125 14.875 C-9.65223633 13.84548218 -9.65223633 13.84548218 -9.16992188 12.79516602 C-6.77071802 7.89518881 -3.70944387 3.98559653 0 0 Z " fill="#5EBF91" transform="translate(33,39)"/>
<path d="M0 0 C1.2890625 1.6171875 1.2890625 1.6171875 2.625 3.875 C14.11076652 21.79167247 30.83515697 31.53839242 51.2265625 36.21875 C55.50294976 37.10413038 59.64729787 37.68909271 64 38 C64 40.31 64 42.62 64 45 C44.03109767 46.0613393 24.59619614 37.13127019 9.57421875 24.359375 C3.75569634 19.02646523 -3.0603143 12.50182088 -6 5 C-5.74609375 2.83203125 -5.74609375 2.83203125 -5 1 C-3 0 -3 0 0 0 Z " fill="#5FC091" transform="translate(31,121)"/>
<path d="M0 0 C10.01208808 -0.65653037 19.32122276 1.71761226 29 4 C30.17691406 4.27328125 31.35382813 4.5465625 32.56640625 4.828125 C40.66860023 6.85637063 40.66860023 6.85637063 43 10 C42.875 13.5625 42.875 13.5625 42 17 C38.53076119 19.31282587 37.07794425 19.42478586 33 19 C31.125 17.75 31.125 17.75 30 16 C30 14.68 30 13.36 30 12 C26.87669547 11.34578818 23.75109398 10.70323841 20.625 10.0625 C19.75488281 9.88009766 18.88476562 9.69769531 17.98828125 9.50976562 C12.00808498 8.2915775 6.08286407 7.4903951 0 7 C0 4.69 0 2.38 0 0 Z " fill="#61C093" transform="translate(94,10)"/>
<path d="M0 0 C2.91289646 0.08473881 3.77703881 0.15009119 6.125 2 C7.39118536 5.20766959 7.05799067 7.1041021 6.0625 10.375 C2.59251271 12.68832486 1.13740752 12.71457563 -2.9375 12.375 C-3.9275 11.715 -4.9175 11.055 -5.9375 10.375 C-6.30078125 8.5 -6.30078125 8.5 -6.25 6.375 C-6.24419922 5.323125 -6.24419922 5.323125 -6.23828125 4.25 C-5.60401966 0.29616155 -3.72848099 0.35509343 0 0 Z " fill="#274144" transform="translate(93.9375,78.625)"/>
<path d="M0 0 C4.81826218 0.84530916 6.34029694 1.93125503 9.5625 5.625 C10.33402986 9.94556721 10.08997866 11.81619939 7.6875 15.5 C4.98843031 18.19906969 4.07148995 18.55777491 0.25 19.0625 C-3.4375 18.625 -3.4375 18.625 -6.375 16.0625 C-8.16611311 13.53947024 -8.50218531 12.25629375 -9.0625 9.0625 C-8.04270823 3.45364528 -5.60885472 1.01979177 0 0 Z M-5.4375 5.625 C-5.79263379 7.53321061 -5.79263379 7.53321061 -5.75 9.625 C-5.76675781 10.32625 -5.78351563 11.0275 -5.80078125 11.75 C-5.68089844 12.36875 -5.56101562 12.9875 -5.4375 13.625 C-1.94625983 15.95249345 -0.54527749 16.12799316 3.5625 15.625 C6.12588689 14.14506844 6.12588689 14.14506844 7.5625 11.625 C7.41455998 7.9264996 7.20444427 6.26694427 4.5625 3.625 C2.65243694 3.3073754 2.65243694 3.3073754 0.5625 3.375 C-0.13875 3.36984375 -0.84 3.3646875 -1.5625 3.359375 C-3.6810669 3.46794485 -3.6810669 3.46794485 -5.4375 5.625 Z " fill="#DFEDE9" transform="translate(93.4375,75.375)"/>
<path d="M0 0 C0.99 0.33 1.98 0.66 3 1 C2.6875 4.375 2.6875 4.375 2 8 C-1.46923881 10.31282587 -2.92205575 10.42478586 -7 10 C-8.875 8.6875 -8.875 8.6875 -10 7 C-10 6.01 -10 5.02 -10 4 C-9.34 4 -8.68 4 -8 4 C-7.34 3.01 -6.68 2.02 -6 1 C-3.4375 0.875 -3.4375 0.875 -1 1 C-0.67 0.67 -0.34 0.34 0 0 Z " fill="#67C196" transform="translate(134,19)"/>
<path d="M0 0 C2.4375 0.75 2.4375 0.75 4.4375 2.75 C3.86931818 8.31818182 3.86931818 8.31818182 2.4375 9.75 C-0.5 9.9375 -0.5 9.9375 -3.5625 9.75 C-5.5625 7.75 -5.5625 7.75 -5.875 4.75 C-5.771875 3.76 -5.66875 2.77 -5.5625 1.75 C-2.5625 -0.25 -2.5625 -0.25 0 0 Z " fill="#30474A" transform="translate(120.5625,155.25)"/>
<path d="M0 0 C0.3125 2.75 0.3125 2.75 0 6 C-2.25 8.4375 -2.25 8.4375 -5 10 C-7.3125 9.75 -7.3125 9.75 -9 9 C-8.01 9 -7.02 9 -6 9 C-6 8.34 -6 7.68 -6 7 C-7.32 6.34 -8.64 5.68 -10 5 C-9.49396008 2.83125748 -9.00016187 1.00032373 -8 -1 C-4.37673261 -2.2077558 -3.35853631 -1.54311128 0 0 Z " fill="#6DC39A" transform="translate(29,104)"/>
<path d="M0 0 C2.5 0.25 2.5 0.25 4.5 2.25 C4.75 5.25 4.75 5.25 4.5 8.25 C2.5 10.25 2.5 10.25 0.0625 10.625 C-2.5 10.25 -2.5 10.25 -4.375 8.5 C-5.5 6.25 -5.5 6.25 -5.3125 4.125 C-4.06001158 1.23464212 -3.16410873 0.31641087 0 0 Z " fill="#2E4649" transform="translate(124.5,76.75)"/>
<path d="M0 0 C5.56818182 0.56818182 5.56818182 0.56818182 7 2 C7.1875 4.9375 7.1875 4.9375 7 8 C5 10 5 10 2.5625 10.3125 C0 10 0 10 -1.875 8.8125 C-3 7 -3 7 -2.8125 4.4375 C-2 2 -2 2 0 0 Z " fill="#2D4648" transform="translate(44,27)"/>
<path d="M0 0 C3.0625 0.1875 3.0625 0.1875 5.0625 2.1875 C5.43046448 5.05762296 5.43759409 6.59524618 3.875 9.0625 C2.0625 10.1875 2.0625 10.1875 -0.5 10 C-2.9375 9.1875 -2.9375 9.1875 -4.9375 7.1875 C-4.23164336 0.2701049 -4.23164336 0.2701049 0 0 Z " fill="#2C4446" transform="translate(61.9375,15.8125)"/>
<path d="M0 0 C3.0625 0.1875 3.0625 0.1875 5.0625 2.1875 C5.43046448 5.05762296 5.43759409 6.59524618 3.875 9.0625 C2.0625 10.1875 2.0625 10.1875 -0.5 10 C-2.9375 9.1875 -2.9375 9.1875 -4.9375 7.1875 C-4.23164336 0.2701049 -4.23164336 0.2701049 0 0 Z " fill="#2D4547" transform="translate(79.9375,9.8125)"/>
<path d="M0 0 C2.5625 0.3125 2.5625 0.3125 4.4375 1.5 C5.5625 3.3125 5.5625 3.3125 5.4375 5.875 C4.5625 8.3125 4.5625 8.3125 1.5625 10.3125 C-2.97804054 9.77195946 -2.97804054 9.77195946 -4.4375 8.3125 C-4.625 5.375 -4.625 5.375 -4.4375 2.3125 C-2.4375 0.3125 -2.4375 0.3125 0 0 Z " fill="#2B4446" transform="translate(105.4375,157.6875)"/>
<path d="M0 0 C2 2 2 2 2.25 4.5 C2 7 2 7 0 9 C-3 9.3125 -3 9.3125 -6 9 C-8 6 -8 6 -7.75 3.375 C-7.5025 2.59125 -7.255 1.8075 -7 1 C-4.48718205 -0.25640898 -2.78302919 -0.20872719 0 0 Z " fill="#2F4749" transform="translate(113,110)"/>
<path d="M0 0 C2.5 0.25 2.5 0.25 4.5 2.25 C4.75 5.25 4.75 5.25 4.5 8.25 C3.84 8.91 3.18 9.57 2.5 10.25 C-0.79714793 9.92028521 -2.1226839 9.6273161 -4.5 7.25 C-4.75 4.75 -4.75 4.75 -4.5 2.25 C-2.5 0.25 -2.5 0.25 0 0 Z " fill="#30484B" transform="translate(122.5,95.75)"/>
<path d="M0 0 C0.33 0 0.66 0 1 0 C1.12375 0.969375 1.2475 1.93875 1.375 2.9375 C1.684375 4.4534375 1.684375 4.4534375 2 6 C4.28705831 7.14352916 5.59264762 7.10334439 8.125 7.0625 C9.40375 7.041875 10.6825 7.02125 12 7 C12 7.99 12 8.98 12 10 C8.87139505 11.56430248 6.44397075 11.35627284 3 11 C0.5 8.875 0.5 8.875 -1 6 C-0.75 2.6875 -0.75 2.6875 0 0 Z " fill="#D1E2DE" transform="translate(87,83)"/>
<path d="M0 0 C1.65 0.33 3.3 0.66 5 1 C4.67 2.65 4.34 4.3 4 6 C2.35 5.67 0.7 5.34 -1 5 C-0.67 3.35 -0.34 1.7 0 0 Z " fill="#E0F5EB" transform="translate(128,20)"/>
<path d="M0 0 C2.0625 0.4375 2.0625 0.4375 4 1 C3.67 2.65 3.34 4.3 3 6 C1.35 5.67 -0.3 5.34 -2 5 C-1.125 1.125 -1.125 1.125 0 0 Z " fill="#E1F5EC" transform="translate(21,104)"/>
<path d="M0 0 C1.32 0 2.64 0 4 0 C4 1.65 4 3.3 4 5 C2.35 4.67 0.7 4.34 -1 4 C-0.67 2.68 -0.34 1.36 0 0 Z " fill="#D3DCDC" transform="translate(150,96)"/>
<path d="M0 0 C0.66 0 1.32 0 2 0 C1.34 3.3 0.68 6.6 0 10 C-0.66 9.67 -1.32 9.34 -2 9 C-2.125 5.625 -2.125 5.625 -2 2 C-1.34 1.34 -0.68 0.68 0 0 Z " fill="#E9F6F1" transform="translate(87,79)"/>
<path d="M0 0 C1.98 0.495 1.98 0.495 4 1 C3.67 2.32 3.34 3.64 3 5 C1.68 4.67 0.36 4.34 -1 4 C-0.67 2.68 -0.34 1.36 0 0 Z " fill="#E8EFEF" transform="translate(38,76)"/>
</svg>
