<svg width="152" height="32" viewBox="0 0 152 32" fill="none" xmlns="http://www.w3.org/2000/svg">
<path d="M106.229 19.8242C105.895 25.128 107.537 27.6335 112 29.8701C113.8 30.7701 115.39 31.7704 117.21 30.1904C119.2 28.4504 119.87 25.5302 118.9 22.9502C117.751 23.6401 118.579 24.8102 118.22 25.6602C117.42 27.5201 117.07 30.5606 114.41 29.751C111.81 28.951 108.69 27.9506 107.83 24.5107C107.472 23.0669 106.875 21.6921 106.229 19.8242ZM89.334 24.1406C89.6796 26.7156 91.225 27.8114 93.1797 28.2402C94.8396 28.6102 96.2893 27.8896 97.2793 26.4297C97.5392 26.0298 97.9894 25.6401 97.6699 25.1104C97.3699 24.6204 96.7494 24.48 96.3594 24.75C93.9343 26.4365 91.6393 26.0606 89.334 24.1406ZM101.439 0.0107422C99.0297 -0.129087 97.1597 1.13076 96.2197 3.39062C95.1998 5.84053 94.9397 8.79053 96.3096 10.9404C97.9396 13.5104 98.5195 16.4806 96.6895 18.6406C95.7497 19.7702 95.0498 19.8603 93.1104 18.8906C95.9201 18.6105 97.3696 17.3101 96.8496 14.4502C96.7596 13.9203 96.3895 13.4002 96.0195 12.9902C95.9486 12.9011 95.3302 13.2005 95.0703 13.4502C94.5804 13.9101 94.4898 14.6902 94.9795 15.0303C96.2695 15.8903 95.8801 16.7307 94.9102 17.2207C93.7202 17.8207 92.9895 16.66 93.0195 15.75C93.0395 15.2105 93.0097 14.9609 92.8799 14.8408C92.5999 14.5708 92.1099 14.6304 91.9199 14.6504C89.4798 14.9934 82.8526 15.9575 79.6895 15.9961L79.6699 15.8105V15.9961C79.6121 15.9967 79.5554 16 79.5 16C79.1074 16 78.5494 16.0103 78 16.0068V16H0V17H77.5L77.8955 17.0879C78.353 17.2001 78.9624 17.3725 79.4199 17.5C79.4199 17.5 79.5146 17.5266 79.6699 17.5713V17.5801C79.6793 17.5801 79.6889 17.5792 79.6982 17.5791C79.9546 17.653 80.3567 17.7726 80.7695 17.9102C86.1395 19.7102 88.8198 20.6008 90.8398 22.5508C91.5397 23.2207 92.2799 24.0901 93.4697 24.2002C94.1096 24.2602 94.8198 24.0906 95.5996 23.5908C98.2596 21.9108 99.2597 19.7104 99.2197 16.4404C99.1897 14.0205 98.6602 11.5207 99.96 9.09082C101.11 6.91082 101.84 6.59074 103.32 8.51074C103.93 9.29086 104.27 10.8301 105.59 9.77051C106.79 8.79054 106.03 7.63052 105.47 6.56055C104.56 4.84055 103.05 4.55012 101.39 4.37012C99.0398 4.10028 98.0595 5.83074 97.0596 7.68066C96.6596 4.74079 97.3597 2.6801 100.149 1.79004C104.669 0.340055 106.819 3.26049 108.649 6.94043C108.359 1.97043 104.729 0.200742 101.439 0.0107422ZM89.3193 24.1299C89.3239 24.1337 89.3294 24.1368 89.334 24.1406C89.3331 24.1337 89.331 24.127 89.3301 24.1201L89.3193 24.1299ZM117.56 16.1201C115.93 14.9204 113.66 15.5603 112.96 17.21C112.22 18.93 113.39 20.0106 114.76 21.1406C112.55 21.5306 112.32 19.3903 110.62 18.6602C111.53 21.2 112.81 23.4104 114.93 22.2207C117.46 20.8107 116.08 23.2098 116.88 23.6299C117.31 22.0402 119.53 22.0096 119.72 20.5098C119.96 18.7103 120.46 19.07 121.76 19.5C124.23 20.32 125.259 19.09 124.529 15.79C123.369 19.26 122.91 19.4404 120.31 17.8604C119.38 17.2904 118.44 16.7801 117.56 16.1201ZM114.64 17.5C116.79 16.58 117.74 18.2004 118.58 19.6104C118.98 20.2603 118.35 20.8706 117.47 20.8906C116.62 20.9106 115.76 20.9899 116.27 19.6699C116.939 17.9501 115.8 17.79 114.64 17.5ZM106.229 19.8242C106.229 19.8164 106.229 19.8086 106.229 19.8008H106.22C106.222 19.8087 106.226 19.8163 106.229 19.8242ZM117.92 11.3809C116.12 9.19099 113.54 8.87088 112.37 10.7705C111.62 11.9905 111.209 13.421 110.649 14.751L110.64 14.7607C110.84 14.8907 111.05 15.0311 111.25 15.1611C111.91 14.3411 112.72 13.5907 113.21 12.6807C114.29 10.6708 115.36 10.9008 116.54 12.5107C116.89 12.9906 117.1 13.5705 117.439 14.0703C119.229 16.7103 122.19 16.5406 123.66 13.6406C123.93 13.1108 124.09 12.7505 124.66 12.9404C125.3 13.1504 126.47 13.5211 126.17 14.0811C125.23 15.8409 126.81 15.5312 127.43 15.7012C128.99 16.1411 130.58 15.9704 132.189 15.6904C134.549 15.2705 136.929 14.951 139.319 14.751C139.979 14.701 140.959 15.7406 141.109 14.3506C141.209 13.4408 140.28 13.111 139.37 13.1709C138.67 13.2209 137.97 13.3105 137.27 13.3105C133.21 13.2806 129.069 14.0411 125.279 11.7012C124.399 11.1512 123.27 10.9412 122.1 11.4111C120.51 12.0412 122.18 13.681 121.08 14.4609C119.44 13.991 118.85 12.5108 117.92 11.3809ZM105.229 10.3008C105.339 14.6504 100.93 12.9406 99.8799 15.3604L99.8896 15.3506C102.35 16.9706 104.24 13.871 106.62 14.501C106.88 14.5702 107.13 13.68 106.89 13.2002C106.47 12.3703 105.969 11.5806 105.229 10.3008ZM152 14.0303C149.38 13.0503 146.87 12.97 144.31 13.54C146.78 14.14 149.16 16.0803 152 14.0303ZM109.199 9.41016C107.92 9.48058 108.529 11.5609 108.609 12.7607C108.65 13.5106 109.02 14.2502 109.88 14.6201C110.33 13.7102 109.909 12.8403 109.649 12.0703C109.329 11.1203 110.869 9.32016 109.199 9.41016Z" fill="black"/>
</svg>
